<svg width="68" height="68" viewBox="0 0 68 68" fill="none" xmlns="http://www.w3.org/2000/svg">
<path d="M41.2506 24.4214C41.5479 23.9897 41.4404 23.3999 41.0087 23.101L36.5903 20.0473L36.5412 12.8899C36.5381 12.368 36.1143 11.9474 35.5924 11.9474C35.5908 11.9474 35.5877 11.9474 35.5861 11.9474C35.0626 11.9506 34.6404 12.3791 34.6436 12.9025L34.6958 20.5533C34.6973 20.8633 34.8507 21.1511 35.1053 21.3282L39.9302 24.6618C40.0946 24.7757 40.2828 24.8294 40.4694 24.8294C40.7699 24.8326 41.0656 24.6887 41.2506 24.4214Z" fill="#696969"/>
<path d="M46.7652 47.5826C46.4916 47.135 45.9064 46.9959 45.4605 47.2695L40.778 50.1381C40.3953 50.3737 40.2292 50.845 40.381 51.2672L41.8707 55.4215C42.0099 55.809 42.3752 56.0509 42.7642 56.0509C42.8702 56.0509 42.9793 56.0335 43.0852 55.9956C43.5786 55.8185 43.8348 55.2761 43.6577 54.7827L42.429 51.3542L46.4536 48.8888C46.8996 48.6136 47.0403 48.0285 46.7652 47.5826Z" fill="#696969"/>
<path d="M60.1414 42.7403C60.1493 42.7245 60.1557 42.7103 60.162 42.6945C60.1683 42.6787 60.1746 42.6613 60.181 42.6454C60.1857 42.6344 60.1905 42.6233 60.1936 42.6122C60.1936 42.6106 60.1952 42.6091 60.1952 42.6059C60.1999 42.5885 60.2047 42.5711 60.2094 42.5537C60.2126 42.5411 60.2173 42.5268 60.2189 42.5142C60.2221 42.5015 60.2221 42.4889 60.2252 42.4762C60.2284 42.4573 60.2316 42.4399 60.2332 42.4209C60.2332 42.4177 60.2332 42.413 60.2332 42.4098C60.2411 42.3197 60.2347 42.2295 60.2173 42.1441V42.1426L58.1362 32.0153C57.7978 30.3707 56.5169 29.0913 54.8706 28.756L47.9679 27.3518V21.8643C47.9679 19.6962 46.7755 17.7211 44.8573 16.709L36.0331 12.0597C35.682 11.8747 35.2519 11.9284 34.9577 12.1925L29.3612 17.2119C29.3343 17.2356 29.309 17.2609 29.2853 17.2878L23.4214 23.8838L15.0701 21.0373C14.7649 20.9329 14.428 20.9914 14.175 21.1907C13.922 21.3899 13.7876 21.7046 13.8192 22.0256L14.9167 33.5113L7.98702 41.7187C7.98386 41.7219 7.98228 41.7251 7.98069 41.7282C7.94907 41.7678 7.91902 41.8089 7.89372 41.8532C7.89055 41.8579 7.88897 41.8626 7.88581 41.8658C7.83679 41.9544 7.80042 42.0508 7.78144 42.1536C7.77986 42.16 7.77828 42.1647 7.77828 42.171C7.77037 42.2169 7.76562 42.2643 7.76562 42.3133C7.76562 42.3228 7.76562 42.3323 7.76562 42.3402C7.76562 42.3529 7.76562 42.3671 7.76562 42.3798C7.76721 42.4146 7.77195 42.4493 7.77669 42.4841C7.77669 42.4873 7.77828 42.492 7.77828 42.4952C7.78776 42.5442 7.80042 42.5933 7.81623 42.6391C7.81781 42.6423 7.81781 42.6439 7.81939 42.647C7.83679 42.696 7.85893 42.7435 7.88423 42.7893C7.88581 42.7925 7.88897 42.7973 7.89056 42.8004C7.91744 42.8463 7.94749 42.889 7.98069 42.9301C7.98228 42.9317 7.98228 42.9333 7.98386 42.9348L18.6251 55.7046C18.6346 55.7157 18.644 55.7252 18.6535 55.7346C18.6646 55.7473 18.6757 55.7584 18.6867 55.7694C18.7057 55.7884 18.7263 55.8058 18.7453 55.8216C18.7547 55.8295 18.7642 55.839 18.7737 55.8469C18.8038 55.8706 18.8338 55.8912 18.867 55.9102C18.8781 55.9165 18.8907 55.9228 18.9018 55.9292C18.9255 55.9418 18.9477 55.9529 18.9714 55.964C18.984 55.9703 18.9983 55.975 19.0109 55.9798C19.0346 55.9893 19.0584 55.9972 19.0821 56.0051C19.0947 56.0098 19.109 56.013 19.1232 56.0161C19.1485 56.0225 19.1754 56.0272 19.2007 56.032C19.2133 56.0335 19.226 56.0367 19.2371 56.0383C19.2719 56.043 19.3082 56.0446 19.3446 56.0462C19.3478 56.0462 19.3509 56.0462 19.3541 56.0462C19.3557 56.0462 19.3557 56.0462 19.3573 56.0462H42.7651C42.8346 56.0462 42.9042 56.0383 42.9722 56.0225L52.4733 53.8939C52.7136 53.8401 52.9224 53.6962 53.0584 53.4907L60.0813 42.8494C60.0861 42.8415 60.0908 42.832 60.0972 42.8241C60.1066 42.8083 60.1177 42.7925 60.1256 42.7751C60.1304 42.7672 60.1351 42.7546 60.1414 42.7403ZM51.6841 52.1306L42.6591 54.1517H23.1115L34.4501 48.0364C34.9119 47.7881 35.0842 47.2125 34.8344 46.7507C34.5861 46.289 34.0105 46.1166 33.5487 46.3665L19.585 53.8971L10.6501 43.1768L20.7663 42.628L19.6261 47.8751C19.5154 48.3875 19.8396 48.892 20.3519 49.0042C20.4199 49.0185 20.4879 49.0264 20.5544 49.0264C20.9908 49.0264 21.3846 48.7227 21.4811 48.2784L22.8853 41.8136C22.9486 41.5242 22.8727 41.2222 22.6798 40.9976C22.4884 40.7731 22.2022 40.6513 21.9065 40.6655L10.8525 41.2649L16.623 34.4301C16.7875 34.2356 16.8666 33.9826 16.8428 33.728L15.8466 23.3081L23.404 25.8842C23.7662 26.0076 24.1663 25.9016 24.4193 25.617L30.6674 18.5893L35.7326 14.0459L43.9733 18.3884C45.2668 19.07 46.0702 20.4015 46.0702 21.8643V27.5147L35.2835 32.3822C35.0447 32.4897 34.8613 32.6921 34.7759 32.9404L32.6473 39.1616C32.4781 39.6582 32.7422 40.1974 33.2387 40.3666C33.3399 40.4014 33.4443 40.4188 33.5455 40.4188C33.9393 40.4188 34.3078 40.1706 34.4438 39.7768L36.4395 33.943L47.1313 29.1198L54.4927 30.6173C55.3925 30.8008 56.0915 31.4998 56.2765 32.398L58.0334 40.9518L51.9767 39.0746C51.6952 38.9877 51.3884 39.0367 51.148 39.2059L47.2705 41.948C46.8419 42.2501 46.7407 42.8431 47.0443 43.2701C47.2293 43.531 47.5219 43.6718 47.8192 43.6718C48.009 43.6718 48.2003 43.6148 48.3664 43.4978L51.8613 41.0261L57.7962 42.8668L51.6841 52.1306Z" fill="#696969"/>
</svg>
