<svg width="68" height="68" viewBox="0 0 68 68" fill="none" xmlns="http://www.w3.org/2000/svg">
<path d="M16.1165 48.0982C16.1133 48.0982 16.1101 48.0982 16.1054 48.0982C15.582 48.0919 15.1613 47.6633 15.1661 47.1399C15.2008 43.917 17.8924 41.2935 20.2676 38.9799C21.9977 37.2941 23.7862 35.5498 23.6123 34.299C23.364 32.5151 21.5201 31.4034 19.5671 30.2253C19.3251 30.0798 19.0832 29.9343 18.8444 29.7872C18.3984 29.5121 18.2593 28.927 18.5344 28.481C18.8096 28.0351 19.3931 27.8959 19.8407 28.1711C20.0747 28.315 20.3103 28.4573 20.5475 28.6012C22.6903 29.8932 25.1194 31.3591 25.4926 34.038C25.7993 36.2409 23.7562 38.2319 21.5928 40.3399C19.4817 42.3973 17.0906 44.7283 17.0637 47.162C17.059 47.6807 16.6352 48.0982 16.1165 48.0982Z" fill="#696969"/>
<path d="M32.8297 58.4832C27.6791 58.4832 22.8875 56.8354 19.0194 53.6758C18.4754 53.2314 17.9804 52.776 17.5487 52.3237C17.1866 51.9442 17.2008 51.3432 17.5803 50.9827C17.9599 50.6205 18.5608 50.6348 18.9214 51.0143C19.2993 51.4112 19.7374 51.8113 20.2213 52.2083C24.7362 55.8961 30.6585 57.3225 36.8987 56.225C43.191 55.118 49.0454 51.5836 53.3847 46.2717C62.3069 35.3506 61.9496 20.2403 52.5877 12.5911C44.2174 5.75318 31.0507 7.129 21.9608 15.7903C21.5813 16.1524 20.9803 16.1366 20.6198 15.7587C20.2576 15.3791 20.2735 14.7782 20.653 14.4176C25.3608 9.93281 31.2784 7.10686 37.3162 6.46323C43.4583 5.80853 49.3095 7.46267 53.7911 11.1236C63.9642 19.4354 64.4418 35.7412 54.857 47.4736C50.2314 53.1365 43.9707 56.9097 37.2308 58.0958C35.7427 58.3536 34.272 58.4832 32.8297 58.4832Z" fill="#696969"/>
<path d="M47.5558 39.5698C46.2543 39.5698 44.9433 39.1381 43.8585 38.2525C41.3599 36.2109 40.9882 32.5183 43.0298 30.0197C45.0714 27.5211 48.764 27.1495 51.2626 29.1911C53.7612 31.2327 54.1328 34.9252 52.0912 37.4238C50.9368 38.836 49.2526 39.5698 47.5558 39.5698ZM45.0588 36.7818C46.7461 38.1608 49.2431 37.9093 50.6221 36.222C52.0011 34.5346 51.7496 32.0392 50.0623 30.6586C48.3749 29.2796 45.8779 29.5311 44.4989 31.2184C43.12 32.9074 43.3714 35.4028 45.0588 36.7818Z" fill="#696969"/>
<path d="M33.5113 52.2605C31.9852 52.2605 30.5193 51.7402 29.3221 50.7613C27.9479 49.6385 27.094 48.0492 26.9153 46.2828C26.7366 44.518 27.2584 42.7895 28.3796 41.4153C30.6964 38.5783 34.8887 38.1576 37.7257 40.4743C39.0999 41.5971 39.9539 43.1864 40.1326 44.9529C40.3097 46.7177 39.7894 48.4462 38.6682 49.8204C37.5454 51.1946 35.9561 52.0486 34.1897 52.2273C33.962 52.2494 33.7358 52.2605 33.5113 52.2605ZM33.5271 40.876C32.1513 40.876 30.7849 41.4706 29.8487 42.6171C29.047 43.5992 28.6754 44.8327 28.8019 46.0946C28.9284 47.355 29.5388 48.492 30.5208 49.2938C31.5029 50.0956 32.7364 50.4672 33.9983 50.3407C35.2587 50.2142 36.3957 49.6037 37.1959 48.6217C37.9977 47.6396 38.3693 46.4062 38.2428 45.1442C38.1163 43.8838 37.5059 42.7468 36.5238 41.945C35.6461 41.2255 34.5834 40.876 33.5271 40.876Z" fill="#696969"/>
<path d="M44.4218 23.7874C43.2958 23.7874 42.1636 23.4142 41.2258 22.6472C39.0656 20.8824 38.743 17.688 40.5078 15.5262C42.2727 13.366 45.4671 13.0434 47.6289 14.8083C49.7891 16.5731 50.1117 19.7675 48.3468 21.9293C47.3458 23.1549 45.8893 23.7874 44.4218 23.7874ZM44.4297 15.5689C43.5125 15.5689 42.6016 15.9643 41.977 16.7296C40.8731 18.0802 41.074 20.0759 42.4245 21.1797C43.775 22.2835 45.7707 22.0827 46.8745 20.7322C47.9784 19.3816 47.7775 17.3859 46.427 16.2821C45.8403 15.8014 45.1334 15.5689 44.4297 15.5689Z" fill="#696969"/>
<path d="M28.9461 26.2243C27.9657 26.2243 27.0216 25.889 26.253 25.2612C25.3706 24.5401 24.8203 23.5169 24.7064 22.3831C24.5926 21.2476 24.9262 20.1375 25.6489 19.2535C27.1386 17.4301 29.8333 17.1581 31.6566 18.6478C32.5391 19.3689 33.0894 20.3921 33.2032 21.5259C33.3171 22.6614 32.9834 23.7715 32.2607 24.6555C31.5396 25.5379 30.5165 26.0883 29.3826 26.2021C29.2371 26.2179 29.0916 26.2243 28.9461 26.2243ZM28.9572 19.584C28.2693 19.584 27.5861 19.8813 27.118 20.4538C26.7164 20.944 26.5313 21.5623 26.5946 22.1917C26.6579 22.8227 26.9631 23.3904 27.4533 23.7905C27.9435 24.1922 28.5603 24.3772 29.1912 24.3139C29.8222 24.2507 30.3899 23.9455 30.79 23.4552C31.1917 22.965 31.3767 22.3467 31.3135 21.7173C31.2502 21.0863 30.945 20.5186 30.4548 20.1185C30.0152 19.7579 29.4838 19.584 28.9572 19.584Z" fill="#696969"/>
<path d="M15.2219 47.5067C15.1238 47.5067 15.0242 47.4909 14.9246 47.4593C14.4264 47.2948 14.156 46.7587 14.3205 46.2606C14.953 44.3407 15.6093 41.9623 16.2719 39.1917C17.1274 35.6162 17.9561 31.5077 18.6709 27.3091C19.6925 21.2903 20.412 15.4676 20.6966 10.9164C20.9576 6.73042 20.7852 4.77898 20.616 3.89814C20.1653 4.67302 19.3588 6.45842 18.2233 10.4957C16.9899 14.8857 15.7469 20.6182 14.7237 26.6386C13.4238 34.2862 12.6173 41.6587 12.5667 46.3586C12.5604 46.8789 12.1366 47.2964 11.6179 47.2964C11.6147 47.2964 11.6115 47.2964 11.6068 47.2964C11.0833 47.29 10.6627 46.8615 10.669 46.3365C10.7228 41.4705 11.5182 34.1755 12.8529 26.3192C13.9726 19.7311 15.3294 13.5826 16.6767 9.00763C17.3409 6.75256 17.9687 4.99088 18.5459 3.76847C19.1263 2.53814 19.8759 1.30782 21.0224 1.50233C22.1689 1.69842 22.4694 3.10744 22.6133 4.45954C22.7556 5.80214 22.7667 7.67451 22.6497 10.0213C22.4109 14.7845 21.6629 21.0357 20.5432 27.6254C19.8221 31.8651 18.984 36.0163 18.119 39.6313C17.4437 42.4526 16.7732 44.8816 16.1232 46.852C15.992 47.2537 15.6219 47.5067 15.2219 47.5067Z" fill="#696969"/>
<path d="M13.2967 66.5135C13.2382 66.5135 13.1797 66.5088 13.1228 66.4977C10.8804 66.0786 8.91469 63.9849 7.5879 60.5991C6.44772 57.6925 5.98911 54.2545 6.38921 51.6247C6.72288 49.4281 7.91525 47.4814 9.65953 46.2843C11.1271 45.277 12.8049 44.9132 14.3847 45.2611C17.8543 46.025 19.9165 50.0955 18.9819 54.3352C18.6023 56.0558 17.7942 57.3715 16.9387 58.7647C15.8112 60.6007 14.6457 62.4984 14.2377 65.6865C14.2045 65.9458 14.0669 66.1799 13.855 66.3333C13.6905 66.4519 13.496 66.5135 13.2967 66.5135ZM13.2019 47.0292C12.37 47.0292 11.5161 47.3091 10.7317 47.8467C9.41916 48.7481 8.51935 50.2283 8.26316 51.9093C7.91051 54.2277 8.328 57.2924 9.35274 59.9065C10.202 62.073 11.3311 63.6085 12.5408 64.2869C13.1117 61.3692 14.2772 59.47 15.3209 57.7716C16.1243 56.4638 16.8169 55.3346 17.1285 53.9272C17.8369 50.7091 16.4232 47.6538 13.9767 47.1145C13.7221 47.0576 13.4628 47.0292 13.2019 47.0292Z" fill="#696969"/>
<path d="M17.1961 40.3619C17.1392 40.3619 17.0806 40.3572 17.0221 40.3461L11.9854 39.4115C11.4699 39.3166 11.1299 38.8201 11.2263 38.3061C11.3228 37.7922 11.8178 37.4506 12.3317 37.5455L17.3685 38.4801C17.884 38.575 18.224 39.0715 18.1275 39.5855C18.0437 40.0425 17.6452 40.3619 17.1961 40.3619Z" fill="#696969"/>
</svg>
