<svg width="68" height="68" viewBox="0 0 68 68" fill="none" xmlns="http://www.w3.org/2000/svg">
<path d="M50.6467 29.3588C50.5138 29.3588 50.3778 29.3303 50.2498 29.2702L35.9239 22.6442C34.7015 22.078 33.2972 22.078 32.0748 22.6442L17.7489 29.2686C17.2729 29.4885 16.7099 29.2813 16.4901 28.8053C16.2703 28.3293 16.4775 27.7663 16.9535 27.5465L31.2793 20.9205C33.0094 20.1203 34.9925 20.1203 36.7209 20.9205L51.0468 27.5465C51.5228 27.7663 51.7299 28.3309 51.5101 28.8053C51.3488 29.1548 51.0057 29.3588 50.6467 29.3588Z" fill="#696969"/>
<path d="M52.3032 46.7303C51.8541 46.2827 50.8309 44.4815 51.0365 37.4506C51.1535 33.4386 51.6121 29.7951 51.6327 29.6417C51.6374 29.6022 51.6406 29.5611 51.6406 29.5215C51.6406 25.3182 50.1382 21.2461 47.4088 18.058C44.8374 15.0533 41.3299 13.0023 37.4823 12.2305L34.9062 4.1686C34.7813 3.77483 34.4144 3.50916 34.0017 3.50916C33.5889 3.50916 33.2236 3.77641 33.0971 4.1686L30.521 12.2321C26.6735 13.0039 23.166 15.0549 20.5946 18.0596C17.8651 21.2492 16.3628 25.3198 16.3628 29.5231C16.3628 29.5626 16.366 29.6038 16.3707 29.6433C16.3755 29.6812 16.8467 33.4133 16.9653 37.4348C17.1725 44.4784 16.1493 46.2812 15.6986 46.7303C15.3729 47.056 15.327 47.5684 15.5911 47.9464L26.8712 64.0845C27.1115 64.4277 27.548 64.5732 27.9465 64.4419C28.345 64.3106 28.6091 63.9343 28.5981 63.5152L28.0319 42.9017C28.0224 42.5332 27.7995 42.2043 27.4626 42.0572L23.4237 40.3003C23.2419 40.2212 23.1249 40.0425 23.1249 39.8433V36.516C23.1249 36.3073 23.2435 36.1824 23.313 36.127C23.3826 36.0717 23.5313 35.9847 23.7305 36.0305L30.3139 37.5835C30.6128 37.6546 30.8215 37.9282 30.812 38.2303L30.4451 48.7023C30.4356 48.9885 30.5542 49.2637 30.7709 49.4518L33.3802 51.7212C33.7376 52.0311 34.2689 52.0311 34.6263 51.7212L37.2356 49.4518C37.4523 49.2637 37.5709 48.9885 37.5614 48.7023L37.1945 38.2334C37.185 37.9266 37.3954 37.6531 37.6927 37.5835L44.2728 36.0305C44.4768 35.9831 44.6239 36.0701 44.6951 36.1254C44.7647 36.1808 44.8833 36.3057 44.8833 36.5145V39.8417C44.8833 40.0394 44.7662 40.2197 44.5844 40.2987L40.5455 42.0557L40.5471 42.0588C40.2593 42.1838 39.9873 42.4621 39.9746 42.9602L39.4101 63.5152C39.399 63.9343 39.6631 64.3106 40.0616 64.4419C40.1596 64.4735 40.2593 64.4893 40.3589 64.4893C40.6625 64.4893 40.9551 64.3438 41.1369 64.0845L52.417 47.9464C52.6748 47.5684 52.6289 47.056 52.3032 46.7303ZM41.3884 60.4046C41.526 55.4105 41.7837 46.0171 41.8502 43.558L45.3355 42.0414C46.2101 41.6603 46.7762 40.7985 46.7762 39.8449V36.5176C46.7762 35.7839 46.4473 35.0991 45.8716 34.6421C45.296 34.1851 44.5575 34.0174 43.8364 34.1835L37.253 35.7364C36.0796 36.0132 35.2557 37.0885 35.2937 38.2967L35.6448 48.3164L34.0001 49.7476L32.3555 48.3164L32.7065 38.2935C32.7445 37.0885 31.9206 36.0132 30.7472 35.7364L24.1591 34.1819C23.4427 34.0159 22.7026 34.1835 22.1286 34.6405C21.5529 35.0975 21.224 35.7807 21.224 36.516V39.8433C21.224 40.7969 21.7886 41.6587 22.6631 42.0398L26.1485 43.5564L26.6102 60.403L17.5394 47.4245C18.5752 45.7356 19.0069 42.4368 18.8598 37.3953C18.7475 33.5256 18.3222 29.9865 18.2573 29.4646C18.2842 21.7537 23.8064 15.2526 31.405 13.9954C31.4098 13.9954 31.4129 13.9938 31.4177 13.9922C31.4319 13.9891 31.4446 13.9859 31.4572 13.9827C31.4746 13.978 31.4936 13.9748 31.511 13.9701C31.5189 13.9685 31.5268 13.9653 31.5347 13.9622C31.5569 13.9559 31.579 13.9479 31.5995 13.94C31.6011 13.94 31.6027 13.9385 31.6043 13.9385C31.6881 13.9037 31.7656 13.8594 31.8352 13.804C31.8383 13.8009 31.8415 13.7977 31.8462 13.7945C31.8652 13.7787 31.8842 13.7629 31.9032 13.7455C31.9158 13.7345 31.9269 13.7218 31.938 13.7092C31.9475 13.6997 31.9569 13.6902 31.9648 13.6807C31.9791 13.6649 31.9917 13.6475 32.0044 13.6301C32.0091 13.6238 32.0155 13.6159 32.0202 13.6095C32.0313 13.5937 32.0423 13.5763 32.0518 13.5589C32.0581 13.5494 32.0645 13.5399 32.0692 13.5305C32.0771 13.5162 32.085 13.502 32.0914 13.4862C32.0977 13.4719 32.1056 13.4593 32.1119 13.4451C32.1167 13.434 32.1214 13.4213 32.1262 13.4087C32.1325 13.3913 32.1404 13.3739 32.1467 13.3549C32.1483 13.3518 32.1483 13.3486 32.1499 13.347L34.0001 7.5765L35.844 13.3486C35.844 13.3502 35.8456 13.3518 35.8472 13.3549C35.8614 13.3976 35.8788 13.4403 35.8994 13.4799C35.9041 13.4893 35.9088 13.4972 35.9136 13.5067C35.9342 13.5447 35.9563 13.5811 35.9816 13.6159C35.9863 13.6222 35.9911 13.6285 35.9958 13.6348C36.0195 13.6649 36.0433 13.6933 36.0702 13.7218C36.0765 13.7281 36.0812 13.7345 36.0875 13.7408C36.1176 13.7708 36.1508 13.7977 36.1856 13.8246C36.1919 13.8293 36.1982 13.8341 36.2046 13.8388C36.2757 13.8894 36.3548 13.929 36.4418 13.959C36.4513 13.9622 36.4608 13.9653 36.4687 13.9685C36.5082 13.9812 36.5493 13.9922 36.592 13.9985C36.5936 13.9985 36.5952 13.9985 36.5968 14.0001H36.5983C44.1954 15.2605 49.7128 21.7585 49.7397 29.4693C49.6765 29.9801 49.2527 33.5446 49.1388 37.3684C48.9886 42.4273 49.4219 45.7356 50.4577 47.4292L41.3884 60.4046Z" fill="#696969"/>
</svg>
