<svg width="68" height="68" viewBox="0 0 68 68" fill="none" xmlns="http://www.w3.org/2000/svg">
<path d="M41.2684 48.1614C41.0249 48.1614 40.783 48.0681 40.5979 47.8831C40.2532 47.5384 40.2295 46.9928 40.5284 46.6196C40.5473 46.3096 40.2405 45.1457 38.5738 42.7578C37.0604 40.5897 34.8622 38.031 32.3858 35.5561C29.9093 33.0797 27.3522 30.8831 25.1841 29.3681C22.7962 27.7014 21.6339 27.3946 21.3223 27.4135C20.9507 27.7124 20.4035 27.6887 20.0588 27.344C19.6887 26.9739 19.6887 26.373 20.0588 26.0014C21.0155 25.0446 22.8136 25.5 25.7186 27.4357C28.097 29.0202 30.9419 31.4271 33.7284 34.2135C36.5148 37 38.9217 39.8449 40.5062 42.2233C42.4418 45.1283 42.8973 46.9264 41.9405 47.8831C41.7539 48.0697 41.5104 48.1614 41.2684 48.1614Z" fill="#696969"/>
<path d="M51.1428 49.2179C50.6193 49.2179 50.194 48.7925 50.194 48.2691C50.194 43.7731 47.5435 41.6335 45.3201 40.6293C40.8874 38.6289 35.1391 39.5777 32.7512 41.6825C32.3574 42.0289 31.758 41.9909 31.4117 41.5987C31.0654 41.205 31.1033 40.6056 31.4955 40.2593C34.7295 37.408 41.4172 36.7849 46.0997 38.8993C49.9631 40.6436 52.0916 43.9708 52.0916 48.2691C52.0916 48.7925 51.6662 49.2179 51.1428 49.2179Z" fill="#696969"/>
<path d="M27.0036 37.7954C26.8439 37.7954 26.681 37.7543 26.5324 37.6689C26.0785 37.408 25.9219 36.8276 26.1829 36.3737C28.4316 32.4598 28.1391 24.2191 24.1207 18.651C22.0823 15.8267 18.3344 12.7287 12.0499 14.0081C11.536 14.1124 11.0347 13.7819 10.9303 13.268C10.8259 12.754 11.158 12.2527 11.6704 12.1483C17.3476 10.9923 22.3164 12.9074 25.6594 17.5393C29.7442 23.1991 30.7373 32.2574 27.8275 37.3194C27.652 37.6246 27.3326 37.7954 27.0036 37.7954Z" fill="#696969"/>
<path d="M41.268 48.1614C41.0244 48.1614 40.7825 48.0697 40.5975 47.8831C40.2274 47.5131 40.2258 46.9121 40.5975 46.5421L40.599 46.5405C40.9691 46.1704 41.57 46.1704 41.9416 46.5405C42.3117 46.9105 42.3117 47.5115 41.9416 47.8831C41.755 48.0681 41.5115 48.1614 41.268 48.1614Z" fill="#696969"/>
<path d="M20.7279 27.6192C20.4844 27.6192 20.2424 27.5275 20.0574 27.3409C19.6874 26.9708 19.6858 26.3699 20.0574 25.9998L20.059 25.9982C20.4291 25.6282 21.03 25.6282 21.4016 25.9982C21.7717 26.3683 21.7717 26.9692 21.4016 27.3409C21.2134 27.5275 20.9699 27.6192 20.7279 27.6192Z" fill="#696969"/>
<path d="M41.9388 46.542C41.594 46.1973 41.0516 46.1736 40.68 46.4693C40.6689 46.4693 40.6578 46.4709 40.6468 46.4725C40.3036 46.474 39.1381 46.1419 36.8135 44.5179C34.6454 43.0045 32.0867 40.8063 29.6118 38.3299C27.1369 35.8534 24.9388 33.2963 23.4238 31.1282C21.7997 28.8004 21.4676 27.638 21.4692 27.2933C21.4708 27.2822 21.4708 27.2727 21.4723 27.2617C21.7681 26.89 21.7443 26.346 21.3996 26.0029C21.0296 25.6328 20.4286 25.6328 20.057 26.0029C19.7929 26.267 19.6411 26.5975 19.5936 26.996L8.25503 57.0346C7.96564 57.8 8.14592 58.6366 8.72471 59.2153C9.12164 59.6123 9.63717 59.821 10.1701 59.821C10.4152 59.821 10.6635 59.7767 10.9055 59.685L40.9362 48.3527C41.3394 48.3069 41.6715 48.1519 41.9388 47.8846C42.3088 47.513 42.3088 46.9121 41.9388 46.542ZM10.2349 57.9091C10.2112 57.9186 10.1385 57.9455 10.0673 57.8727C9.99457 57.8 10.0215 57.7288 10.0309 57.7051L20.484 30.0054C20.7576 30.513 21.0912 31.0633 21.4897 31.6627C23.0743 34.0411 25.4812 36.886 28.2676 39.6725C31.054 42.4589 33.899 44.8658 36.2774 46.4503C36.8751 46.8488 37.4255 47.1841 37.9315 47.4577L10.2349 57.9091Z" fill="#696969"/>
<path d="M39.5757 32.0834C39.3511 32.0834 39.125 32.0044 38.9431 31.8415C38.5525 31.492 38.5193 30.8926 38.8688 30.502C39.9995 29.2369 41.5904 29.55 42.7511 29.7778C43.9008 30.0039 44.4843 30.0656 44.8544 29.6512C45.2244 29.2369 45.0979 28.666 44.7453 27.548C44.3894 26.4189 43.9008 24.8723 45.0315 23.6087C46.1622 22.3452 47.7531 22.6567 48.9138 22.886C50.0635 23.1122 50.647 23.1738 51.0155 22.7595C51.365 22.3689 51.9643 22.3357 52.3549 22.6852C52.7455 23.0347 52.7787 23.634 52.4292 24.0246C51.2985 25.2882 49.7077 24.9766 48.5469 24.7473C47.3972 24.5212 46.8137 24.4595 46.4452 24.8738C46.0752 25.2882 46.2017 25.8591 46.5544 26.9771C46.9102 28.1062 47.3988 29.6528 46.2681 30.9164C45.1374 32.1799 43.5466 31.8684 42.3858 31.6406C41.2361 31.4145 40.6526 31.3528 40.2841 31.7672C40.096 31.9759 39.8366 32.0834 39.5757 32.0834Z" fill="#696969"/>
<path d="M35.4187 25.6519C34.9095 25.6519 34.4872 25.2471 34.4714 24.7331C34.4161 23.0379 35.784 22.1665 36.7818 21.5292C37.7702 20.8982 38.2335 20.5409 38.2161 19.9858C38.1988 19.4307 37.7117 19.1049 36.6854 18.5388C35.648 17.9679 34.2279 17.1867 34.1725 15.4915C34.1172 13.7962 35.4851 12.9248 36.4829 12.2875C37.4713 11.6566 37.9347 11.2992 37.9173 10.7457C37.8999 10.2222 38.311 9.7842 38.8345 9.7668C39.3563 9.75099 39.796 10.1606 39.8134 10.684C39.8687 12.3793 38.5008 13.2506 37.5029 13.8879C36.5146 14.5189 36.0512 14.8763 36.0686 15.4298C36.086 15.9848 36.5731 16.3122 37.5994 16.8768C38.6368 17.4476 40.0569 18.2289 40.1122 19.9241C40.1676 21.6194 38.7997 22.4907 37.8018 23.128C36.8135 23.759 36.3501 24.1164 36.3675 24.6715C36.3849 25.1949 35.9737 25.6329 35.4503 25.6503C35.4392 25.6503 35.4282 25.6519 35.4187 25.6519Z" fill="#696969"/>
<path d="M28.1772 12.0139C28.0127 12.0139 27.8451 11.9712 27.6933 11.8811C27.2426 11.6138 27.0955 11.0303 27.3628 10.5812L28.514 8.64554C28.7813 8.19485 29.3648 8.04778 29.8139 8.31503C30.2646 8.58229 30.4117 9.16582 30.1444 9.61494L28.9932 11.5506C28.8161 11.8479 28.5014 12.0139 28.1772 12.0139Z" fill="#696969"/>
<path d="M48.3434 58.3109C48.0224 58.3109 47.7093 58.148 47.5306 57.8539C47.2586 57.4064 47.4009 56.8228 47.85 56.5508L50.2695 55.0833C50.7171 54.8113 51.3006 54.9536 51.5726 55.4027C51.8446 55.8503 51.7023 56.4338 51.2532 56.7058L48.8336 58.1733C48.6802 58.2666 48.511 58.3109 48.3434 58.3109Z" fill="#696969"/>
<path d="M57.853 47.2427C57.6885 47.2427 57.5209 47.2 57.3691 47.1098C56.9184 46.8426 56.7713 46.259 57.0385 45.8099L58.1898 43.8743C58.457 43.4236 59.039 43.2765 59.4897 43.5438C59.9404 43.811 60.0875 44.3946 59.8202 44.8437L58.669 46.7793C58.4918 47.0766 58.1756 47.2427 57.853 47.2427Z" fill="#696969"/>
<path d="M8.99492 37.4965C8.75139 37.4965 8.50943 37.4032 8.32441 37.2182C7.95436 36.8482 7.95436 36.2472 8.32441 35.8756L9.91688 34.2831C10.2869 33.9131 10.8879 33.9131 11.2595 34.2831C11.6295 34.6532 11.6295 35.2541 11.2595 35.6258L9.66702 37.2182C9.48041 37.4032 9.23846 37.4965 8.99492 37.4965Z" fill="#696969"/>
<path d="M53.4692 14.1505C53.2257 14.1505 52.9837 14.0572 52.7987 13.8722L51.2062 12.2813C50.8362 11.9112 50.8362 11.3103 51.2062 10.9387C51.5763 10.5686 52.1772 10.5686 52.5489 10.9387L54.1413 12.5311C54.5114 12.9012 54.5114 13.5021 54.1413 13.8737C53.9547 14.0588 53.7128 14.1505 53.4692 14.1505Z" fill="#696969"/>
<path d="M33.8312 58.3155C33.4501 58.3155 33.0912 58.0846 32.9457 57.7082L32.1328 55.6082C31.9431 55.1195 32.1866 54.5692 32.6752 54.381C33.1639 54.1912 33.7142 54.4348 33.9024 54.9234L34.7152 57.0235C34.905 57.5121 34.6615 58.0625 34.1728 58.2506C34.0605 58.2949 33.9451 58.3155 33.8312 58.3155Z" fill="#696969"/>
<path d="M15.1 23.7938C14.8802 23.7938 14.6604 23.7179 14.4817 23.5645L12.7753 22.0954C12.3784 21.7538 12.3325 21.1544 12.6757 20.7575C13.0173 20.3606 13.6166 20.3147 14.0136 20.6579L15.7199 22.127C16.1168 22.4686 16.1627 23.0679 15.8195 23.4649C15.6329 23.6831 15.3672 23.7938 15.1 23.7938Z" fill="#696969"/>
<path d="M55.3078 34.5046C54.8934 34.5046 54.5123 34.231 54.3953 33.8119L53.7849 31.6438C53.6426 31.1394 53.9367 30.6159 54.4412 30.4736C54.9456 30.3313 55.4691 30.6254 55.6114 31.1299L56.2218 33.298C56.3641 33.8024 56.07 34.3259 55.5655 34.4682C55.4801 34.4935 55.3932 34.5046 55.3078 34.5046Z" fill="#696969"/>
</svg>
