<svg width="68" height="68" viewBox="0 0 68 68" fill="none" xmlns="http://www.w3.org/2000/svg">
<path d="M29.6533 22.72H15.8098C12.9696 22.72 10.6592 20.4096 10.6592 17.5694V17.0997C10.6592 14.2611 12.9696 11.9507 15.8098 11.9507H38.3969C41.237 11.9507 43.5475 14.2611 43.5475 17.0997V17.3401C43.5475 17.8635 43.1221 18.2889 42.5986 18.2889C42.0752 18.2889 41.6498 17.8635 41.6498 17.3401V17.0997C41.6498 15.3064 40.1902 13.8484 38.3969 13.8484H15.8098C14.0165 13.8484 12.5569 15.3064 12.5569 17.0997V17.5694C12.5569 19.3627 14.0165 20.8223 15.8098 20.8223H29.6533C30.1768 20.8223 30.6022 21.2477 30.6022 21.7711C30.6022 22.2946 30.1768 22.72 29.6533 22.72Z" fill="#696969"/>
<path d="M23.773 31.5914H11.484C8.64538 31.5914 6.33496 29.281 6.33496 26.4408V25.9728C6.33496 23.1326 8.64538 20.8221 11.484 20.8221H29.6526C30.1761 20.8221 30.6015 21.2475 30.6015 21.771C30.6015 22.2944 30.1761 22.7198 29.6526 22.7198H11.484C9.69068 22.7198 8.23264 24.1794 8.23264 25.9728V26.4408C8.23264 28.2341 9.69068 29.6938 11.484 29.6938H23.773C24.2964 29.6938 24.7218 30.1192 24.7218 30.6426C24.7218 31.1661 24.2964 31.5914 23.773 31.5914Z" fill="#696969"/>
<path d="M23.2271 40.4631H18.0227C17.9642 40.4631 17.9041 40.4616 17.8456 40.46C15.0576 40.3683 12.8721 38.1069 12.8721 35.3125V34.8444C12.8721 32.0043 15.1825 29.6938 18.0227 29.6938H23.7726C24.2961 29.6938 24.7215 30.1192 24.7215 30.6427C24.7215 31.1661 24.2961 31.5915 23.7726 31.5915H18.0227C16.2294 31.5915 14.7697 33.0511 14.7697 34.8444V35.3125C14.7697 37.0774 16.1487 38.5054 17.9104 38.5623C17.9499 38.5639 17.9863 38.5655 18.0227 38.5655H23.2271C23.7505 38.5655 24.1759 38.9909 24.1759 39.5143C24.1759 40.0378 23.7505 40.4631 23.2271 40.4631Z" fill="#696969"/>
<path d="M27.3833 49.3317H11.484C8.64538 49.3317 6.33496 47.0213 6.33496 44.1811V43.713C6.33496 40.8728 8.64538 38.5624 11.484 38.5624H23.2258C23.7493 38.5624 24.1747 38.9878 24.1747 39.5112C24.1747 40.0347 23.7493 40.4601 23.2258 40.4601H11.484C9.69068 40.4601 8.23264 41.9197 8.23264 43.713V44.1811C8.23264 45.9744 9.69068 47.434 11.484 47.434H27.3833C27.9068 47.434 28.3322 47.8594 28.3322 48.3828C28.3322 48.9063 27.9068 49.3317 27.3833 49.3317Z" fill="#696969"/>
<path d="M41.8282 56.0494C30.8897 56.0494 21.9912 47.1509 21.9912 36.2124C21.9912 25.2739 30.8897 16.3754 41.8282 16.3754C52.7667 16.3754 61.6653 25.2739 61.6653 36.2124C61.6653 47.1509 52.7667 56.0494 41.8282 56.0494ZM41.8282 18.2715C31.9366 18.2715 23.8889 26.3192 23.8889 36.2108C23.8889 46.1024 31.9366 54.1502 41.8282 54.1502C51.7199 54.1502 59.7676 46.1024 59.7676 36.2108C59.7676 26.3192 51.7199 18.2715 41.8282 18.2715Z" fill="#696969"/>
<path d="M41.8282 50.4703C33.9671 50.4703 27.5703 44.0736 27.5703 36.2124C27.5703 28.3513 33.9671 21.9546 41.8282 21.9546C49.6893 21.9546 56.086 28.3513 56.086 36.2124C56.086 44.0736 49.6893 50.4703 41.8282 50.4703ZM41.8282 23.8523C35.0124 23.8523 29.468 29.3966 29.468 36.2124C29.468 43.0283 35.0124 48.5726 41.8282 48.5726C48.644 48.5726 54.1884 43.0283 54.1884 36.2124C54.1884 29.3966 48.6424 23.8523 41.8282 23.8523Z" fill="#696969"/>
<path d="M35.5909 37.3668H33.6442C33.1207 37.3668 32.6953 36.9414 32.6953 36.418C32.6953 35.8945 33.1207 35.4691 33.6442 35.4691H35.5909C35.8028 35.4691 36.0083 35.3932 36.1538 35.262C36.2234 35.1987 36.3404 35.0643 36.3404 34.8808C36.3404 34.5614 35.9973 34.291 35.5909 34.291H33.6442C33.1207 34.291 32.6953 33.8656 32.6953 33.3421C32.6953 32.8187 33.1207 32.3933 33.6442 32.3933H35.5909C37.0505 32.3933 38.2381 33.5082 38.2381 34.8808C38.2381 35.5593 37.9503 36.195 37.4269 36.6694C36.9303 37.1201 36.2788 37.3668 35.5909 37.3668Z" fill="#696969"/>
<path d="M33.6442 40.0299C33.1207 40.0299 32.6953 39.6045 32.6953 39.081V33.3437C32.6953 32.8203 33.1207 32.3949 33.6442 32.3949C34.1676 32.3949 34.593 32.8203 34.593 33.3437V39.081C34.593 39.6045 34.1692 40.0299 33.6442 40.0299Z" fill="#696969"/>
<path d="M43.7664 40.0299H40.107C39.5836 40.0299 39.1582 39.6045 39.1582 39.081V33.3437C39.1582 32.8203 39.5836 32.3949 40.107 32.3949C40.6305 32.3949 41.0559 32.8203 41.0559 33.3437V38.1322H43.7664C44.2898 38.1322 44.7152 38.5576 44.7152 39.081C44.7152 39.6045 44.2898 40.0299 43.7664 40.0299Z" fill="#696969"/>
<path d="M50.1681 40.0299C49.8534 40.0299 49.5514 39.8733 49.3727 39.5982L47.3801 36.5397V39.081C47.3801 39.6045 46.9547 40.0299 46.4313 40.0299C45.9078 40.0299 45.4824 39.6045 45.4824 39.081V33.3437C45.4824 32.9231 45.7592 32.553 46.1608 32.4344C46.5641 32.3158 46.9974 32.474 47.2267 32.8266L49.2193 35.885V33.3437C49.2193 32.8203 49.6447 32.3949 50.1681 32.3949C50.6915 32.3949 51.1169 32.8203 51.1169 33.3437V39.081C51.1169 39.5017 50.8402 39.8717 50.4385 39.9903C50.3484 40.0172 50.2582 40.0299 50.1681 40.0299Z" fill="#696969"/>
</svg>
