<svg width="68" height="68" viewBox="0 0 68 68" fill="none" xmlns="http://www.w3.org/2000/svg">
<path d="M35.1984 28.2928C35.1652 29.0677 34.5121 29.6687 33.7372 29.6355C32.9623 29.6022 32.363 28.9491 32.3946 28.1742C32.4278 27.3994 33.0809 26.7984 33.8558 26.8316C34.6307 26.8648 35.2316 27.518 35.1984 28.2928ZM38.3833 34.4382C38.2537 33.6743 38.7676 32.9501 39.5298 32.8188C40.2937 32.6891 41.0179 33.2031 41.1492 33.9653C41.2789 34.7291 40.7665 35.4534 40.0027 35.5847C39.2389 35.7159 38.513 35.202 38.3833 34.4382ZM29.2255 34.7892C28.6783 35.3364 27.7896 35.3364 27.2424 34.7892C26.6952 34.2421 26.6952 33.3533 27.2424 32.8062C27.7896 32.259 28.6783 32.259 29.2255 32.8062C29.7726 33.3533 29.7726 34.2421 29.2255 34.7892ZM35.1937 40.759C34.6465 41.3062 33.7577 41.3062 33.2106 40.759C32.6634 40.2118 32.6634 39.3231 33.2106 38.7759C33.7577 38.2288 34.6465 38.2288 35.1937 38.7759C35.7424 39.3231 35.7424 40.2103 35.1937 40.759Z" fill="#696969"/>
<path d="M34.2017 42.1665C33.5613 42.1665 32.9588 41.9166 32.5049 41.4643C31.5703 40.5297 31.5703 39.0068 32.5049 38.0722C33.4411 37.1361 34.9624 37.1376 35.8986 38.0722C36.8332 39.0084 36.8332 40.5297 35.8986 41.4659C35.4447 41.9166 34.8422 42.1665 34.2017 42.1665ZM34.2017 39.3611C34.0974 39.3611 33.993 39.4006 33.9139 39.4797C33.7558 39.6378 33.7558 39.8956 33.9139 40.0537C34.0183 40.1581 34.1385 40.1723 34.2017 40.1723C34.265 40.1723 34.3852 40.1565 34.4896 40.0537C34.6477 39.8956 34.6477 39.6378 34.4896 39.4781C34.4105 39.4006 34.3061 39.3611 34.2017 39.3611ZM39.7603 36.6031C39.2685 36.6031 38.7878 36.4513 38.3782 36.1603C37.8548 35.7903 37.5084 35.2384 37.4009 34.6058C37.2934 33.9748 37.4373 33.3391 37.8089 32.8157C38.1805 32.2922 38.7309 31.9459 39.3634 31.8384C39.9944 31.7308 40.6317 31.8747 41.1535 32.2464C41.677 32.6164 42.0233 33.1683 42.1309 33.8009C42.2384 34.4319 42.0945 35.0676 41.7229 35.591C41.3528 36.1145 40.8009 36.4608 40.1683 36.5683C40.0323 36.5905 39.8963 36.6031 39.7603 36.6031ZM39.7667 33.7961C39.7445 33.7961 39.7208 33.7977 39.6971 33.8025C39.5532 33.8278 39.4709 33.9163 39.4346 33.9685C39.3982 34.0207 39.3413 34.1267 39.365 34.2721C39.3903 34.416 39.4789 34.4999 39.531 34.5362C39.5816 34.5726 39.6892 34.6295 39.8347 34.6058C39.9786 34.5805 40.0624 34.492 40.0988 34.4398C40.1351 34.3892 40.1921 34.2816 40.1683 34.1361C40.1446 33.9907 40.0545 33.9084 40.0023 33.872C39.958 33.8404 39.8774 33.7961 39.7667 33.7961ZM28.232 36.1951C27.6168 36.1951 27.0032 35.9611 26.5351 35.493C26.0813 35.0391 25.833 34.4366 25.833 33.7961C25.833 33.1557 26.0829 32.5532 26.5351 32.0993C27.4698 31.1647 28.9926 31.1647 29.9272 32.0993C30.8618 33.0339 30.8618 34.5568 29.9272 35.4914C29.4607 35.9611 28.8471 36.1951 28.232 36.1951ZM28.232 33.3913C28.1276 33.3913 28.0232 33.4308 27.9442 33.5099C27.8398 33.6143 27.8256 33.7345 27.8256 33.7977C27.8256 33.861 27.8414 33.9812 27.9442 34.0855C28.1023 34.2437 28.3601 34.2437 28.5182 34.0855C28.6764 33.9274 28.6764 33.6696 28.5182 33.5099C28.4407 33.4308 28.3364 33.3913 28.232 33.3913ZM33.7985 30.6333C33.7637 30.6333 33.7289 30.6333 33.6957 30.6318C33.0552 30.6049 32.4638 30.3297 32.0305 29.8585C31.5972 29.3872 31.3726 28.7736 31.3995 28.1347C31.4549 26.8127 32.5745 25.7816 33.8981 25.8386C35.2202 25.8939 36.2496 27.0151 36.1943 28.3372C36.1674 28.9776 35.8923 29.5691 35.421 30.0024C34.9735 30.4104 34.401 30.6333 33.7985 30.6333ZM33.7953 27.8264C33.6593 27.8264 33.566 27.8928 33.5217 27.9339C33.4759 27.9766 33.3968 28.0699 33.3905 28.2154C33.381 28.4399 33.555 28.6297 33.7795 28.6392C33.9266 28.6455 34.0262 28.5744 34.0721 28.5317C34.1179 28.489 34.197 28.3957 34.2033 28.2502C34.2096 28.1031 34.1385 28.0035 34.0958 27.9576C34.0531 27.9118 33.9598 27.8327 33.8143 27.8264C33.808 27.828 33.8017 27.8264 33.7953 27.8264Z" fill="#696969"/>
<path d="M22.1673 56.8876C19.335 56.8876 16.5027 55.8091 14.3457 53.6536C10.0332 49.3412 10.0332 42.3245 14.3457 38.0105L38.0113 14.3465C40.1003 12.2575 42.8772 11.1062 45.8328 11.1062C48.7869 11.1062 51.5654 12.2575 53.6544 14.3465C55.7435 16.4355 56.8947 19.2124 56.8947 22.1681C56.8947 25.1237 55.7435 27.9006 53.6544 29.9896L29.9873 53.6536C27.8318 55.8107 24.9995 56.8876 22.1673 56.8876ZM15.7547 52.2446C19.2907 55.7806 25.0438 55.7806 28.5798 52.2446L52.2438 28.5806C53.9565 26.868 54.899 24.5908 54.899 22.1681C54.899 19.7454 53.9565 17.4682 52.2438 15.7555C50.5312 14.0429 48.254 13.1003 45.8313 13.1003C43.4086 13.1003 41.1314 14.0429 39.4187 15.7555L15.7547 39.4211C12.2187 42.9555 12.2187 48.7086 15.7547 52.2446Z" fill="#696969"/>
<path d="M17.4482 33.0923L14.3455 29.9896C10.0346 25.6772 10.0346 18.6589 14.3455 14.3465C16.4345 12.2575 19.2114 11.1062 22.167 11.1062C25.1227 11.1062 27.8996 12.2559 29.9886 14.3465L33.1214 17.4792L31.7124 18.8882L28.5796 15.7555C26.867 14.0429 24.5897 13.0988 22.1655 13.0988C19.7428 13.0988 17.4671 14.0413 15.7529 15.7539C12.2185 19.2899 12.2185 25.043 15.7529 28.579L18.8556 31.6817L17.4482 33.0923Z" fill="#696969"/>
<path d="M45.8312 56.8876C42.9989 56.8876 40.1666 55.8091 38.0112 53.6537L34.8516 50.4941L36.2606 49.085L39.4202 52.2447C42.9562 55.7807 48.7077 55.7807 52.2437 52.2447C55.7797 48.7087 55.7797 42.9571 52.2437 39.4211L49.2075 36.3849L50.6165 34.9758L53.6528 38.0121C57.9652 42.3246 57.9652 49.3412 53.6528 53.6537C51.4957 55.8091 48.6635 56.8876 45.8312 56.8876Z" fill="#696969"/>
</svg>
