<svg viewBox="0 0 20 20" xmlns="http://www.w3.org/2000/svg"><path d="M0.757812 1.01954C0.480469 1.12501 0.261719 1.32814 0.121094 1.60939L0 1.84767V6.25001V10.6524L0.121094 10.8906C0.261719 11.1758 0.480469 11.375 0.769531 11.4844C0.933594 11.5469 1.07422 11.5625 1.42578 11.5625H1.86719L1.88281 12.4141C1.89844 13.375 1.91797 13.457 2.1875 13.5938C2.36719 13.6836 2.49219 13.6914 2.66797 13.6172C2.73828 13.5899 3.30078 13.1133 3.91797 12.5625L5.04297 11.5625H5.41016H5.77734L5.78906 13.836L5.80078 16.1133L5.89062 16.2774C6.02734 16.5391 6.19922 16.707 6.45312 16.836L6.69141 16.9531H10.8203H14.9453L16.1094 17.9883C17.3281 19.0703 17.3789 19.1055 17.6641 19.0469C17.8359 19.0117 17.957 18.9258 18.0352 18.7774C18.0938 18.6719 18.1055 18.5235 18.1172 17.8008L18.1328 16.9531H18.5898C19.1875 16.9531 19.3594 16.8945 19.6523 16.6055C19.9883 16.2656 20 16.211 20 14.8985V13.793L19.8984 13.7149C19.7656 13.6133 19.6484 13.6094 19.5195 13.711L19.418 13.7891L19.4062 14.836C19.3945 15.8047 19.3906 15.8867 19.3125 16.0156C19.2695 16.0899 19.1758 16.1914 19.1016 16.2383C18.9883 16.3203 18.9258 16.3281 18.5195 16.3281C17.9609 16.332 17.7969 16.3672 17.6406 16.5195L17.5195 16.6406L17.5 17.5L17.4805 18.3555L16.4258 17.4141C15.8477 16.8985 15.3281 16.4453 15.2734 16.4102C15.1875 16.3555 14.7695 16.3477 10.9766 16.3281C7.01172 16.3086 6.76953 16.3047 6.66797 16.2383C6.60547 16.1992 6.52344 16.1133 6.48438 16.043C6.41016 15.9219 6.40625 15.8281 6.40625 13.7383V11.5625H9.82422C13.1836 11.5625 13.2422 11.5625 13.457 11.4805C13.7539 11.3711 14.0273 11.0977 14.1328 10.8086C14.2148 10.5899 14.2188 10.5313 14.2188 8.76955V6.95314H16.5508C18.8281 6.95314 18.8867 6.95314 19.0469 7.03517C19.1484 7.08205 19.2539 7.1758 19.3047 7.25783L19.3945 7.40236L19.4141 10.0899C19.4336 12.6953 19.4375 12.7813 19.5078 12.836C19.6211 12.918 19.8281 12.9063 19.9219 12.8125C20 12.7344 20 12.6836 20 9.9883V7.2383L19.8789 7.00001C19.75 6.7422 19.582 6.57814 19.2969 6.43751L19.1211 6.34767L16.6719 6.33595L14.2188 6.32423V4.12111C14.2188 1.9922 14.2148 1.91017 14.1367 1.70314C14.0391 1.44142 13.7812 1.16017 13.5234 1.04298L13.3398 0.957045L8.70312 0.945326C4.09766 0.937513 4.0625 0.937513 3.98438 1.01564C3.86328 1.13673 3.87891 1.37892 4.00781 1.48048C4.11328 1.56251 4.11719 1.56251 8.625 1.56251H13.1367L13.3008 1.66017C13.6172 1.84376 13.5938 1.50392 13.5938 6.25001C13.5938 10.9258 13.6094 10.6406 13.3438 10.832L13.2227 10.918L9.02344 10.9375C6.71484 10.9492 4.79297 10.9727 4.75781 10.9922C4.71875 11.0078 4.19922 11.457 3.60547 11.9922L2.51953 12.957L2.5 12.1133C2.48047 11.1992 2.47266 11.1641 2.25 11.0313C2.15234 10.9688 2.02344 10.9531 1.55469 10.9375C0.917969 10.9141 0.839844 10.8867 0.683594 10.6211C0.605469 10.4922 0.605469 10.418 0.605469 6.25001C0.605469 1.53126 0.585938 1.87501 0.867188 1.67189C0.992188 1.58595 1.02734 1.58204 1.97656 1.56251C2.875 1.54298 2.96875 1.53517 3.04297 1.46876C3.15625 1.3672 3.15625 1.12501 3.03906 1.01564C2.95703 0.94142 2.90625 0.937513 1.95703 0.94142C1.0625 0.94142 0.9375 0.949232 0.757812 1.01954Z" fill="currentColor"></path><path d="M5.40231 5.86726C4.97653 5.98054 5.05075 6.6446 5.49215 6.65632C5.78121 6.66022 5.96871 6.45319 5.92184 6.17585C5.88278 5.93757 5.65231 5.80085 5.40231 5.86726Z"></path><path d="M7.00391 5.86325C6.83203 5.8984 6.76563 5.957 6.71485 6.12887C6.58985 6.54684 7.09375 6.84372 7.40234 6.53122C7.53906 6.3984 7.53906 6.1445 7.40234 5.98434C7.29297 5.85543 7.19141 5.82418 7.00391 5.86325Z"></path><path d="M8.39455 5.97273C8.2383 6.13289 8.23439 6.35554 8.39064 6.52742C8.66799 6.83601 9.18752 6.55476 9.08595 6.15242C9.01174 5.85164 8.61721 5.75007 8.39455 5.97273Z"></path></svg>