<svg viewBox="0 0 30 30" xmlns="http://www.w3.org/2000/svg"><path d="M0.615234 0.0820312C0.369141 0.1875 0.0703125 0.544922 0.0292969 0.773438C0.0117187 0.878906 0.00585938 6.62695 0.0117187 13.541L0.0292969 26.1152L0.199219 26.332C0.427734 26.6367 0.755859 26.7773 1.24805 26.7773H1.64062V27.1582C1.64062 27.5742 1.74609 27.8965 1.95117 28.1133C2.16211 28.3359 2.28516 28.3828 2.8125 28.418L3.31055 28.4473L3.33984 28.916C3.375 29.4727 3.49805 29.6895 3.88476 29.877C4.13672 30 4.16016 30 11.1973 30H18.2519L20.4023 27.8438L22.5586 25.6934V23.4199V21.1523H22.957C23.7949 21.1523 24.9199 20.8828 25.8281 20.4727C26.373 20.2207 26.4844 20.127 26.4844 19.9102C26.4844 19.6758 26.3906 19.5176 26.209 19.4473C26.0859 19.4004 25.9629 19.4414 25.4707 19.6641C23.3144 20.6543 20.8418 20.4141 18.9609 19.0312L18.5566 18.7383L20.7246 16.5703L22.8867 14.4082L25.8281 15.1816C28.5996 15.9141 28.7695 15.9668 28.7344 16.084C28.6348 16.4297 28.1426 17.3262 27.8086 17.7832C27.5977 18.0645 27.4219 18.3398 27.4219 18.3984C27.4219 18.5977 27.6504 18.8086 27.873 18.8086C28.1191 18.8086 28.3301 18.6035 28.7754 17.9297C29.2852 17.1621 29.6426 16.3184 29.8652 15.3398C30.0059 14.7188 30.0059 13.1426 29.8594 12.4922C29.5371 10.998 28.8457 9.73828 27.7793 8.71289C26.4961 7.47656 24.9375 6.79102 23.1914 6.69727L22.5644 6.66211L22.5469 5.27344L22.5293 3.88477L22.3594 3.66797C22.1309 3.36328 21.8027 3.22266 21.3223 3.22266H20.9355L20.9062 2.78906C20.8535 2.01562 20.5312 1.69922 19.7402 1.65234L19.2773 1.62305V1.40625C19.2773 1.03711 19.166 0.585938 19.0371 0.398438C18.9668 0.298828 18.8027 0.169922 18.668 0.111328C18.4394 0.00585938 18.0879 0 9.60937 0.00585938C2.44922 0.00585938 0.755859 0.0175781 0.615234 0.0820312ZM18.3398 0.990234C18.3691 1.05469 18.3984 1.22461 18.3984 1.37109V1.64062H13.248C8.13281 1.64062 8.10351 1.64062 7.94531 1.76367C7.75195 1.91602 7.73437 2.22656 7.91015 2.40234C8.02734 2.51953 8.10351 2.51953 13.9629 2.51953C18.5039 2.51953 19.916 2.53711 19.9687 2.58984C20.0098 2.63086 20.0391 2.78906 20.0391 2.94141V3.22266L12.0234 3.23438L4.00781 3.25195L3.76758 3.41016C3.29883 3.7207 3.33984 2.56055 3.33984 15.7559V27.5449L2.94727 27.5273L2.54883 27.5098L2.53125 15.0938C2.52539 5.96484 2.53711 2.66016 2.58398 2.60156C2.63672 2.53711 2.98242 2.51953 4.2832 2.51953C5.8418 2.51953 5.92383 2.51367 6.03516 2.40234C6.21094 2.22656 6.19336 1.91602 5.99414 1.75781C5.8418 1.63477 5.79492 1.63477 4.10156 1.65234C2.41406 1.66992 2.36719 1.67578 2.15625 1.80469C2.03906 1.88086 1.88086 2.03906 1.80469 2.15625L1.66992 2.37305L1.65234 14.1387L1.64062 25.9043L1.27148 25.8867L0.908203 25.8691L0.890625 13.4473C0.884766 6.61523 0.890625 0.990234 0.908203 0.949219C0.925781 0.896484 2.72461 0.878906 9.60351 0.878906C18.1172 0.878906 18.2754 0.878906 18.3398 0.990234ZM21.668 5.43164C21.6855 6.87891 21.7266 6.74414 21.2402 6.82617C20.8184 6.89648 20.0742 7.1543 19.5644 7.41211C17.6309 8.36719 16.2949 10.0137 15.7207 12.1289C15.5215 12.8848 15.4629 14.3555 15.6094 15.1465C16.0137 17.3379 17.3027 19.1602 19.207 20.2383C19.6992 20.5195 20.5078 20.8359 21.0059 20.9473C21.2344 20.9941 21.4746 21.0527 21.5508 21.0645L21.6797 21.0938V23.0566V25.0195H20.1445C19.2656 25.0195 18.5098 25.0488 18.3867 25.0781C18.1055 25.1602 17.8184 25.4004 17.7187 25.6465C17.6543 25.793 17.6367 26.2266 17.6367 27.4805V29.1211L10.9453 29.1094L4.24805 29.0918L4.23047 16.6699C4.22461 9.83789 4.23047 4.21289 4.24805 4.17188C4.26562 4.11328 6.04101 4.10156 12.9609 4.11328L21.6504 4.13086L21.668 5.43164ZM23.7949 7.64648C24.0644 7.69336 24.4394 7.77539 24.6211 7.83398L24.9551 7.93945L23.666 10.8105L22.3769 13.6816L20.1562 15.9023L17.9414 18.123L17.6426 17.7188C17.0801 16.957 16.6699 16.0254 16.5 15.1172C16.3828 14.502 16.377 13.3359 16.4941 12.7324C16.9863 10.1367 19.0254 8.12109 21.6387 7.64648C22.2129 7.54102 23.2031 7.54102 23.7949 7.64648ZM26.2617 8.60742C28.1719 9.85547 29.3203 12.2461 29.0801 14.4961C29.0449 14.8066 29.0098 15.0703 28.998 15.082C28.9746 15.1055 23.4316 13.6582 23.3906 13.6172C23.3555 13.5938 25.7402 8.32031 25.7871 8.32031C25.8047 8.32031 26.0215 8.44922 26.2617 8.60742ZM19.7988 27.1758L18.5449 28.4531L18.5273 27.2227C18.5156 26.2793 18.5332 25.9863 18.5859 25.9453C18.6269 25.9219 19.2012 25.8984 19.8574 25.8984H21.0469L19.7988 27.1758Z"></path><path d="M6.80277 7.41793C6.66215 7.59957 6.65043 7.66989 6.75004 7.88082C6.79106 7.97457 6.89066 8.05075 7.02543 8.09176C7.16605 8.13278 8.69535 8.1445 11.5899 8.13278L15.9493 8.1152L16.0606 7.97457C16.2071 7.79879 16.2012 7.52926 16.0547 7.38278C15.9375 7.26559 15.8614 7.26559 11.4317 7.26559H6.91996L6.80277 7.41793Z"></path><path d="M6.80273 10.6406C6.73242 10.7285 6.67969 10.834 6.67969 10.875C6.67969 11.039 6.82031 11.2441 6.9668 11.3086C7.07227 11.3496 8.16797 11.3672 10.541 11.3554L13.957 11.3379L14.0684 11.1972C14.2148 11.0215 14.209 10.7519 14.0625 10.6054C13.9453 10.4883 13.8691 10.4883 10.4355 10.4883H6.91992L6.80273 10.6406Z"></path><path d="M6.80273 13.8633C6.73242 13.9511 6.67969 14.0566 6.67969 14.0976C6.67969 14.2617 6.82031 14.4668 6.9668 14.5312C7.07227 14.5722 8.0332 14.5898 10.0723 14.5781L13.0195 14.5605L13.1309 14.4199C13.2773 14.2441 13.2715 13.998 13.125 13.8398L13.0019 13.7109H9.96093H6.91992L6.80273 13.8633Z"></path><path d="M9.78517 18.75C9.67384 18.8613 9.66798 18.9434 9.66798 20.3027V21.7383H8.67774H7.68165L7.56446 21.8906C7.44728 22.043 7.44142 22.1191 7.44142 23.6719V25.2949L7.20118 25.3301C7.07228 25.3477 6.91407 25.4062 6.84962 25.4648C6.70314 25.5996 6.70314 25.9219 6.85548 26.0742C6.97267 26.1914 7.04884 26.1914 11.1914 26.1914C15.334 26.1914 15.4102 26.1914 15.5274 26.0742C15.7969 25.8047 15.6035 25.3887 15.1875 25.3301L14.9414 25.2949V23.1152C14.9414 20.9941 14.9356 20.9297 14.8184 20.7773L14.7012 20.625H13.7051H12.7149V19.7578C12.7149 18.5508 12.832 18.6328 11.1914 18.6328C9.97852 18.6328 9.89649 18.6387 9.78517 18.75ZM11.8359 22.4121V25.3125H11.1914H10.5469V22.4121V19.5117H11.1914H11.8359V22.4121ZM14.0625 23.4082V25.3125H13.3887H12.7149V23.4082V21.5039H13.3887H14.0625V23.4082ZM9.66798 23.9648V25.3125H8.99415H8.32032V23.9648V22.6172H8.99415H9.66798V23.9648Z"></path></svg>