<svg viewBox="0 0 30 30" xmlns="http://www.w3.org/2000/svg"><path d="M2.98828 1.99219V3.98438H3.48633H3.98438L3.99609 5.98828L4.01367 7.99805L6.52148 8.01562L9.02344 8.02734V9.88477V11.7422L8.0332 12.7441C7.10742 13.6758 7.03711 13.7578 7.00195 14.0039C6.98438 14.1504 6.97266 15.7031 6.98438 17.4609L7.00195 20.6543L8.25 24.1055L9.49219 27.5625V28.6113V29.6602L9.66211 29.8301L9.83203 30H13.002H16.166L16.3301 29.8594L16.4941 29.7188L16.5117 25.8398L16.5293 21.9609L15.9082 20.5137C15.5684 19.7227 15.293 19.0488 15.293 19.0254C15.293 19.002 16.5059 18.9844 17.9883 18.9844H20.6895L20.8301 18.8379L20.9766 18.6973V13.3652V8.02734L23.4844 8.01562L25.9863 7.99805L26.0039 5.98828L26.0156 3.98438H26.5137H27.0117V1.99219V0H15H2.98828V1.99219ZM26.0156 1.99219V2.98828H15H3.98438V1.99219V0.996094H15H26.0156V1.99219ZM25.0078 5.49023L25.0195 6.97266H22.998H20.9707L20.9883 6.48633L21.0059 6.00586L21.4922 5.98828L21.9727 5.9707V5.47852V4.98047H15H8.02734V5.47852V5.9707L8.51367 5.98828L8.99414 6.00586L9.01172 6.48633L9.0293 6.97266H7.00195H4.98047V5.51953C4.98047 4.7168 4.99805 4.04297 5.02148 4.02539C5.03906 4.00195 9.54492 3.99023 15.0234 3.99609L24.9902 4.01367L25.0078 5.49023ZM11.0039 9.50391L11.0156 13.0078H11.5137H12.0117V10.5996V8.19141L12.2344 8.39062C13.875 9.87305 16.1836 9.85547 17.8008 8.35547L17.9883 8.17969V10.5938V13.0078H18.4863H18.9844L18.9961 9.50391L19.0137 6.00586L19.5 5.98828L19.9805 5.9707V11.9824V17.9883H17.4902H15V16.8867C15 15.6621 14.9531 15.416 14.6426 15.041C14.3438 14.6836 13.9512 14.5195 13.3594 14.5078C12.75 14.502 12.498 14.5488 12.2227 14.7363L12.0117 14.877V14.4434V14.0039H11.5137H11.0156V15.498V16.9922H11.25H11.4844V17.4902V17.9883H10.752H10.0195V11.9824V5.9707L10.5059 5.98828L10.9863 6.00586L11.0039 9.50391ZM17.9121 6.19336C17.8477 6.58594 17.4727 7.25391 17.1152 7.61133C15.668 9.05273 13.2363 8.66602 12.3398 6.84961C12.2227 6.60938 12.1113 6.31641 12.0879 6.19336L12.0527 5.97656H15H17.9473L17.9121 6.19336ZM9.02344 15.9668V18.6973L9.16992 18.8379C9.31055 18.9844 9.32227 18.9844 10.4004 18.9844H11.4844V19.9805V20.9766H11.9824H12.4805V18.4922C12.4805 16.9102 12.5039 15.9434 12.5391 15.8438C12.6387 15.5859 12.7617 15.5332 13.248 15.5273C13.6055 15.5273 13.7285 15.5508 13.834 15.6387C13.9746 15.75 13.9746 15.7617 14.0039 17.2383L14.0332 18.7207L14.7832 20.4434L15.5273 22.1602L15.5156 24.5742L15.498 26.9824H12.9199H10.3418L9.1875 23.7598L8.0332 20.5371V17.3613L8.02734 14.1797L8.48438 13.7109C8.73047 13.4531 8.95312 13.2422 8.98242 13.2422C9.00586 13.2422 9.02344 14.4668 9.02344 15.9668ZM15.5156 28.4883L15.498 28.9746L12.9961 28.9922L10.4883 29.0039V28.5059V28.0078H13.0078H15.5332L15.5156 28.4883Z"></path><path d="M6.01758 5.02148C5.99414 5.03906 5.97656 5.26758 5.97656 5.51953V5.97656H6.47461H6.97266V5.47852V4.98047H6.51562C6.26367 4.98047 6.03516 4.99805 6.01758 5.02148Z"></path><path d="M23.0273 5.47852V5.97656H23.5254H24.0293L24.0117 5.49024L23.9941 5.00977L23.5137 4.99219L23.0273 4.97461V5.47852Z"></path><path d="M14.5313 10.5762C13.9395 10.7637 13.5234 11.3379 13.5176 11.9824C13.5176 12.4102 13.6406 12.7266 13.9336 13.0313C14.2383 13.3477 14.543 13.4766 15 13.4766C15.457 13.4766 15.7617 13.3477 16.0664 13.0313C16.3594 12.7207 16.4824 12.4102 16.4824 11.9766C16.4766 11.332 16.0488 10.7578 15.4453 10.5762C15.0938 10.4707 14.877 10.4707 14.5313 10.5762ZM15.2285 11.5723C15.416 11.666 15.4688 11.7656 15.4688 12.0293C15.4688 12.4336 14.9355 12.6445 14.666 12.3457C14.4434 12.1055 14.4844 11.7188 14.7539 11.5781C14.9531 11.4668 15.0234 11.4668 15.2285 11.5723Z"></path><path d="M17.9883 15V15.9961H16.9922H15.9961V16.4941V16.9922H17.4902H18.9844V15.498V14.0039H18.4863H17.9883V15Z"></path></svg>