<svg viewBox="0 0 30 30" xmlns="http://www.w3.org/2000/svg"><g clip-path="url(#clip0_692_2372)"><path d="M4.2832 0.0820312C3.97851 0.251953 3.99023 0.111328 3.98437 5.01562V9.5918L3.59179 9.66211C2.43164 9.87305 1.4707 10.8047 1.23633 11.9414C1.18945 12.1582 1.17187 14.209 1.17187 18.6621V25.0781H1.04297C0.849608 25.084 0.46289 25.2715 0.310546 25.4355C-8.01403e-07 25.7754 -0.0703133 26.2383 0.0878898 26.9824C0.380858 28.3887 1.61133 29.6191 3.01758 29.9121C3.63281 30.041 26.3672 30.041 26.9824 29.9121C28.0547 29.6895 29.0918 28.8809 29.584 27.8906C30.1055 26.8301 30.1289 25.834 29.6426 25.3887C29.4785 25.2363 29.1211 25.0781 28.9453 25.0781C28.8281 25.0781 28.8281 25.0723 28.8281 19.2363V13.3945L29.414 12.8027C30.0234 12.1816 30.0879 12.0586 29.9355 11.7598C29.8125 11.5137 27.2812 9.02344 27.0937 8.96484C26.8418 8.88281 26.6367 8.9707 26.2969 9.30469L26.0156 9.57422V5.02148C26.0156 0.0703125 26.0273 0.222656 25.6933 0.0703125C25.582 0.0175781 24.5156 0 21.5273 0C17.1738 0 17.2676 -0.00585938 17.1211 0.322266C16.9863 0.621094 17.0801 0.949219 17.3496 1.08984C17.4844 1.16016 18.123 1.17188 21.1816 1.17188H24.8437V5.96484V10.752L22.7168 12.8789L20.5957 15H13.9629C8.94726 15 7.29492 15.0176 7.17773 15.0703C7.00781 15.1465 6.85546 15.3926 6.85546 15.5859C6.85546 15.7793 7.00781 16.0254 7.17773 16.1016C7.29492 16.1543 8.81249 16.1719 13.3769 16.1719H19.4238L18.1348 17.4609L16.8457 18.75H12.0879C8.52538 18.75 7.28906 18.7676 7.17773 18.8203C7.00781 18.8965 6.85546 19.1426 6.85546 19.3359C6.85546 19.5293 7.00781 19.7754 7.17773 19.8516C7.28906 19.9043 8.39062 19.9219 11.4961 19.9219H15.6621L15.1699 20.4375C14.7187 20.9062 14.6543 21.0117 14.3906 21.627C14.2324 21.9961 13.8281 22.9219 13.4941 23.6836L12.8789 25.0781H9.01757H5.15625V13.125V1.17188H8.81835C11.5254 1.17188 12.5156 1.1543 12.6269 1.10156C12.7969 1.02539 12.9492 0.779297 12.9492 0.585938C12.9492 0.392578 12.7969 0.146484 12.6269 0.0703125C12.3926 -0.0351562 4.47656 -0.0234375 4.2832 0.0820312ZM23.1328 17.4434L17.6953 22.8809L16.875 22.0605L16.0547 21.2402L21.4863 15.8086L26.9238 10.3711L27.7441 11.1914L28.5644 12.0117L23.1328 17.4434ZM3.98437 17.9297V25.0781H3.16406H2.34375V18.7031C2.34375 11.7188 2.33203 12 2.68945 11.502C2.7832 11.373 2.94726 11.2031 3.05273 11.127C3.24023 10.9922 3.75586 10.7871 3.91406 10.7812C3.96679 10.7812 3.98437 12.2461 3.98437 17.9297ZM27.6562 19.834V25.0781H26.8359H26.0156V20.6426V16.2012L26.8183 15.3984C27.2637 14.9531 27.6328 14.5898 27.6387 14.5898C27.6504 14.5898 27.6562 16.9512 27.6562 19.834ZM24.8262 25.0605C24.8144 25.0723 22.8457 25.0723 20.4609 25.0664L16.1133 25.0488L17.0449 24.6445L17.9824 24.2344L21.3984 20.8184L24.8144 17.4023L24.832 21.2227C24.8379 23.3203 24.8379 25.0488 24.8262 25.0605ZM16.6406 23.502C16.6406 23.543 14.4668 24.5098 14.4433 24.4805C14.4316 24.4629 14.8418 23.5137 15.2695 22.5645L15.416 22.2422L16.0254 22.8516C16.3652 23.1914 16.6406 23.4785 16.6406 23.502ZM28.8281 26.3379C28.8281 26.5605 28.6758 27.0762 28.5234 27.3867C28.1894 28.0488 27.4687 28.6055 26.7305 28.7637C26.5078 28.8105 23.2324 28.8281 14.9824 28.8281C2.50781 28.8281 3.25195 28.8457 2.5664 28.5C2.16211 28.2949 1.69336 27.8145 1.47656 27.3867C1.32422 27.0762 1.17187 26.5605 1.17187 26.3379C1.17187 26.2617 2.95312 26.25 15 26.25C27.0469 26.25 28.8281 26.2617 28.8281 26.3379Z"></path><path d="M14.7128 0.0820311C14.2031 0.363281 14.4199 1.17188 14.9999 1.17188C15.2988 1.17188 15.5859 0.884766 15.5859 0.591797C15.5859 0.152344 15.0996 -0.134766 14.7128 0.0820311Z"></path><path d="M7.15432 3.83203C6.76174 4.04883 6.77346 4.66992 7.17776 4.85156C7.41213 4.95703 9.73831 4.94531 9.9551 4.83984C10.3418 4.63477 10.3418 4.03711 9.9551 3.83203C9.72659 3.71485 7.36526 3.71485 7.15432 3.83203Z"></path><path d="M12.6621 3.83203C12.2696 4.04883 12.2813 4.66992 12.6856 4.85156C12.7969 4.9043 14.0684 4.92188 17.7539 4.92188C21.4395 4.92188 22.711 4.9043 22.8223 4.85156C22.9922 4.77539 23.1445 4.5293 23.1445 4.33594C23.1445 4.14258 22.9922 3.89648 22.8223 3.82031C22.5879 3.71484 12.8555 3.72656 12.6621 3.83203Z"></path><path d="M7.15432 7.58208C6.76174 7.79888 6.77346 8.41997 7.17776 8.60162C7.38284 8.69537 16.2715 8.70123 16.4824 8.60748C16.6465 8.5313 16.8164 8.26763 16.8164 8.08599C16.8164 7.90435 16.6465 7.64068 16.4824 7.5645C16.2598 7.4649 7.34182 7.48247 7.15432 7.58208Z"></path><path d="M19.2246 7.58203C18.9492 7.73437 18.8555 8.07422 19.0078 8.37305C19.1543 8.6543 19.2715 8.67188 21.041 8.67188C22.8223 8.67188 22.9395 8.6543 23.0742 8.34961C23.209 8.05078 23.1153 7.72266 22.8457 7.58203C22.6172 7.46484 19.4356 7.46484 19.2246 7.58203Z"></path><path d="M7.15432 11.332C6.76174 11.5488 6.77346 12.1699 7.17776 12.3516C7.28909 12.4043 8.02737 12.4219 9.87893 12.4219C12.0352 12.4219 12.4512 12.4102 12.5977 12.334C12.8028 12.2285 12.8906 12.082 12.8906 11.8359C12.8906 11.5898 12.8028 11.4434 12.5977 11.3379C12.3633 11.2148 7.37698 11.209 7.15432 11.332Z"></path><path d="M15.2227 11.4199C15.0645 11.5605 15.0293 11.6309 15.0293 11.8359C15.0293 12.041 15.0645 12.1113 15.2227 12.252L15.4102 12.4219H18.2812C21.3574 12.4219 21.3809 12.4219 21.5391 12.123C21.6973 11.8184 21.5859 11.4492 21.2988 11.3203C21.1875 11.2676 20.3789 11.25 18.2812 11.25H15.4102L15.2227 11.4199Z"></path></g><defs><clipPath id="clip0_692_2372"><rect width="30" height="30" fill="currentColor"></rect></clipPath></defs></svg>