<svg viewBox="0 0 30 30" xmlns="http://www.w3.org/2000/svg"><g clip-path="url(#clip0_692_2355)"><path d="M4.98884 0.0953236C4.28571 0.256681 3.75 0.635256 3.42857 1.20622L3.24777 1.51653L3.22768 8.20053L3.21429 14.8907H1.60714H0V17.8697V20.8486H15H30V17.8697V14.8907H28.3929H26.7857L26.7723 8.35569L26.7522 1.82683L26.5982 1.47308C26.404 1.03245 25.9688 0.573195 25.5335 0.349773C24.7902 -0.0225945 25.2991 -0.00397491 14.8996 0.0022316C6.87054 0.0084362 5.33036 0.0208492 4.98884 0.0953236ZM7.39955 1.21863C7.27902 1.82683 6.77679 2.47848 6.13393 2.86326C5.71875 3.1115 4.82143 3.4094 4.47991 3.4094H4.28571V2.62742C4.28571 1.55376 4.40625 1.33034 5.10268 1.10692C5.38393 1.02004 5.67188 0.995213 6.45536 0.989006H7.44643L7.39955 1.21863ZM21.4955 1.1876C21.4955 1.47308 21.8371 2.35435 22.1049 2.76396C22.808 3.83762 24.1808 4.7251 25.3661 4.87405L25.7143 4.91749V12.3835V19.8557H23.7054H21.6964L22.0714 19.3405C22.7277 18.4407 23.1629 17.4849 23.4174 16.3802C23.5848 15.6479 23.5781 14.0777 23.4107 13.3392C23.0424 11.7504 22.279 10.4472 21.0335 9.29902C19.7946 8.14468 18.3951 7.43718 16.6741 7.09584C15.8772 6.93448 14.1228 6.93448 13.3259 7.09584C11.5915 7.44339 10.2254 8.13227 8.96652 9.29902C7.70759 10.4658 6.96429 11.7318 6.58929 13.3392C6.42188 14.0777 6.41518 15.6479 6.58259 16.3802C6.83705 17.4849 7.27232 18.4407 7.92857 19.3405L8.30357 19.8557H6.29464H4.28571L4.29911 12.1414L4.3192 4.43341L4.52009 4.41479C5.34375 4.34652 6.46875 3.92451 7.07812 3.45905C7.77455 2.92532 8.30357 2.11852 8.45759 1.35517L8.53795 0.989006H15.0134H21.4955V1.1876ZM24.8438 1.13795C25.5469 1.47929 25.7143 1.85786 25.7143 3.08047C25.7143 4.03001 25.7478 3.99277 25.058 3.77556C23.8259 3.39078 22.7812 2.2985 22.5871 1.1876L22.5469 0.976593L23.5781 1.00142C24.4219 1.02004 24.6496 1.04486 24.8438 1.13795ZM16.1384 8.03297C17.7121 8.25018 19.1451 8.92665 20.2902 9.9879C23.0759 12.5697 23.2366 16.6223 20.6585 19.4212L20.2634 19.8557H15H9.7433L9.42857 19.5205C8.22321 18.2483 7.60714 16.8271 7.52009 15.139C7.39286 12.4828 8.97991 9.96307 11.5781 8.72185C13.0045 8.03917 14.5446 7.80334 16.1384 8.03297ZM3.21429 17.8697V19.8557H2.14286H1.07143V17.8697V15.8837H2.14286H3.21429V17.8697ZM28.9286 17.8697V19.8557H27.8571H26.7857V17.8697V15.8837H27.8571H28.9286V17.8697Z"></path><path d="M12.2678 12.2284C11.2634 12.4083 10.433 13.1593 10.1719 14.1088L10.0982 14.3943H9.62945C9.22766 14.3943 9.1473 14.4129 9.00668 14.5495C8.7857 14.7481 8.7857 15.0335 9.00668 15.2321C9.1473 15.3687 9.22766 15.3873 9.62945 15.3873H10.0982L10.1719 15.6728C10.5134 16.9264 11.7589 17.7208 13.1786 17.5967C13.6942 17.5532 14.183 17.3236 14.5111 16.9699C14.712 16.7526 15.1004 16.0824 15.3281 15.5549L15.4018 15.3873H17.1094H18.8236L18.7835 15.5238C18.5826 16.1258 17.7857 16.6285 17.029 16.6285C16.5335 16.6285 16.2991 17.156 16.6473 17.4788C16.808 17.6277 16.8549 17.6339 17.2299 17.6029C17.8393 17.547 18.2879 17.4043 18.7634 17.1064C19.279 16.7899 19.7076 16.2375 19.8281 15.7286L19.9085 15.3873H20.3705C20.7723 15.3873 20.8527 15.3687 20.9933 15.2321C21.1004 15.1391 21.1607 15.0087 21.1607 14.8908C21.1607 14.7729 21.1004 14.6426 20.9933 14.5495C20.8527 14.4129 20.7723 14.3943 20.3705 14.3943H19.9085L19.8281 14.053C19.7076 13.5441 19.279 12.9917 18.7634 12.6752C18.2009 12.3277 17.7187 12.1911 17.0089 12.1911C16.5 12.1911 16.3995 12.2098 16.0781 12.3773C15.8839 12.4766 15.6161 12.6752 15.4888 12.8117C15.2812 13.0228 14.9263 13.6434 14.6786 14.2205L14.5982 14.3943H12.8906H11.183L11.25 14.2392C11.5312 13.5441 12.1473 13.1531 12.9375 13.1531C13.2656 13.1531 13.5268 12.9359 13.5268 12.6566C13.5268 12.5387 13.4665 12.4083 13.3594 12.3153C13.1853 12.1477 12.8504 12.1229 12.2678 12.2284ZM17.8527 13.3331C18.3214 13.5317 18.6495 13.8482 18.7835 14.2516L18.8236 14.3943H17.3169C16.3259 14.3943 15.8036 14.3695 15.8036 14.3323C15.8036 14.295 15.8906 14.1088 15.9978 13.9102C16.1853 13.5627 16.3728 13.3703 16.6406 13.2214C16.8348 13.1158 17.4643 13.1779 17.8527 13.3331ZM14.1964 15.4494C14.1964 15.5611 13.8549 16.1569 13.7009 16.3058C13.3794 16.6409 12.9643 16.7092 12.3348 16.5354C11.8125 16.3865 11.471 16.0762 11.25 15.5424L11.183 15.3873H12.6897C13.6808 15.3873 14.1964 15.4121 14.1964 15.4494Z"></path><path d="M12.0267 21.972L11.8526 22.0961V23.4615V24.8206H10.9553C10.1517 24.8206 10.0445 24.833 9.88382 24.9509C9.7499 25.044 9.70972 25.1309 9.70972 25.3047C9.70972 25.5281 9.81686 25.6336 12.0066 27.663C13.982 29.4938 14.3303 29.7855 14.4977 29.7855C14.6718 29.7855 15.02 29.4876 17.0222 27.6258C18.7432 26.037 19.3526 25.435 19.3526 25.3295C19.3526 25.2488 19.2655 25.0999 19.1584 25.0006L18.9642 24.8206H18.0869H17.2097V23.5111V22.2016L17.0155 22.0216L16.8213 21.8417H14.5111C12.2811 21.8417 12.2008 21.8479 12.0267 21.972ZM16.1383 24.169C16.1383 25.5095 16.1383 25.5095 16.3057 25.6584C16.4463 25.795 16.5267 25.8136 16.9887 25.8136H17.5111L16.0378 27.1789C15.2276 27.9299 14.5378 28.5443 14.4977 28.5443C14.4575 28.5443 13.7678 27.9299 12.9575 27.1789L11.4843 25.8136H11.9999C12.4486 25.8136 12.5423 25.795 12.703 25.6646L12.8905 25.5157L12.9106 24.1752L12.9307 22.8347H14.5378H16.1383V24.169Z"></path></g><defs><clipPath id="clip0_692_2355"><rect width="30" height="30" fill="currentColor"></rect></clipPath></defs></svg>