<svg viewBox="0 0 30 30" xmlns="http://www.w3.org/2000/svg"><path d="M11.209 0.0820312C10.6172 0.199219 10.2422 0.328125 9.63868 0.632812C8.94141 0.996094 8.33789 1.45898 7.69336 2.13281C7.08399 2.76562 6.80274 3.25781 6.64453 3.9668C6.46875 4.75195 6.52735 5.05078 7.3418 7.82227C8.05664 10.2598 8.06836 10.2949 8.16797 11.3086C8.27344 12.3809 8.36719 12.9023 8.52539 13.3945C8.79493 14.1914 9.41016 15.1641 10.0137 15.7207L10.3125 16.002L10.3008 16.9805L10.2832 17.959L7.64649 18.8848C6.19922 19.3887 4.82227 19.8984 4.58789 20.0039C2.88281 20.8125 1.64063 22.3359 1.125 24.2461C0.978516 24.8086 0.972656 24.8438 0.949219 27.2578L0.925781 29.7012L1.07813 29.8535L1.22461 30H8.4375H15.6504L15.791 29.8535C15.8848 29.7656 15.9375 29.6426 15.9375 29.5312C15.9375 29.4199 15.8848 29.2969 15.791 29.209C15.6621 29.0742 15.6035 29.0625 15.0879 29.0625H14.5313V26.5488V24.0293L15.3516 22.623C15.8379 21.791 16.1719 21.1582 16.1719 21.0645C16.1719 20.748 15.7617 20.5254 15.4688 20.6836C15.4102 20.7129 15.082 21.2285 14.7363 21.8262C14.3848 22.4238 14.0801 22.9043 14.0566 22.8984C14.0274 22.8867 13.3828 21.8203 12.627 20.5195L11.25 18.1582V17.3906C11.25 16.9746 11.2676 16.6406 11.2969 16.6523C12.9609 17.4902 14.8301 17.5605 16.4004 16.8398C16.6406 16.7285 16.8399 16.6406 16.8516 16.6406C16.8633 16.6406 16.875 16.7344 16.875 16.8457C16.875 17.2852 17.3672 17.502 17.666 17.1973C17.8008 17.0684 17.8125 17.0098 17.8125 16.5059V15.9492L18.0117 15.7969C18.334 15.5566 18.9609 14.7246 19.2481 14.1738C19.6289 13.4355 19.7871 12.8145 19.9453 11.3965L20.0801 10.166L20.8067 7.73438L21.5274 5.30273L21.5332 4.6582C21.5332 3.60938 21.2578 2.98242 20.4024 2.0918C19.7578 1.42969 19.1133 0.949219 18.3691 0.580078C17.4961 0.152344 17.0215 0.0410156 15.9961 0.0351562C15.1816 0.0292969 15.1231 0.0410156 14.6074 0.222656L14.0625 0.416016L13.5234 0.228516C13.0606 0.0703125 12.8789 0.0410156 12.3047 0.0234375C11.8945 0.0117188 11.4668 0.0351562 11.209 0.0820312ZM12.832 0.996094C12.9785 1.03125 13.2305 1.11328 13.3887 1.18359C13.7813 1.34766 14.3496 1.34766 14.7246 1.18359C15.627 0.785156 16.8926 0.884766 18.0176 1.44727C18.9785 1.92773 20.0098 2.87695 20.3789 3.62695C20.584 4.04297 20.5957 4.0957 20.5957 4.62305C20.5899 5.16211 20.5664 5.26758 19.9863 7.20703C19.6524 8.32031 19.3652 9.26367 19.3418 9.30469C19.2832 9.41016 18.8672 8.94141 18.6914 8.57227C18.5156 8.20312 18.3984 7.61719 18.3984 7.11328C18.3984 6.54492 18.3164 6.47461 17.6074 6.42188C16.2422 6.32227 15.2344 5.82422 14.4727 4.86914C14.2969 4.65234 14.2324 4.61133 14.0625 4.61133C13.8926 4.61133 13.8281 4.65234 13.6523 4.86914C12.8789 5.83594 11.8887 6.32812 10.5117 6.42188C10.0371 6.45703 9.94922 6.48047 9.83204 6.60352C9.72657 6.7207 9.70313 6.80273 9.71485 7.06641C9.73829 7.58203 9.6211 8.13867 9.4043 8.58398C9.1875 9.0293 8.8125 9.45703 8.76563 9.31055C8.74805 9.26367 8.4668 8.32031 8.13868 7.20703C7.46485 4.91602 7.41797 4.63477 7.60547 4.00195C7.76953 3.47461 7.99805 3.12305 8.52539 2.60742C9.64454 1.5 10.8106 0.960938 12.1289 0.943359C12.3691 0.943359 12.6856 0.966797 12.832 0.996094ZM14.4141 6.16992C15.0293 6.72656 16.002 7.1543 16.957 7.28906L17.4316 7.35938L17.5254 7.88086C17.7188 8.92383 18.0938 9.57422 18.8555 10.2012L19.1074 10.4062L19.0137 11.3086C18.8906 12.4746 18.7441 13.0898 18.457 13.6699C17.7422 15.0938 16.5 16.0195 14.9121 16.3184C13.0898 16.6641 11.1563 15.873 10.0488 14.3262C9.49805 13.5527 9.29297 12.9375 9.14063 11.584C9.07618 11.0332 9.02344 10.5352 9.02344 10.4824C9.02344 10.4355 9.15235 10.2832 9.31641 10.1543C10.0723 9.53906 10.4883 8.73047 10.6348 7.61133L10.6699 7.3418L11.0449 7.30664C11.959 7.21875 13.0781 6.74414 13.6875 6.18164C13.875 6.00586 14.0449 5.86523 14.0508 5.85938C14.0625 5.85938 14.2266 6 14.4141 6.16992ZM11.9473 21.2051C12.6973 22.4941 13.3066 23.5723 13.3008 23.5957C13.2832 23.6543 11.1973 24.252 11.168 24.2051C11.1563 24.1875 11.0625 23.6426 10.957 22.998L10.7637 21.8262L9.65039 20.7012C8.90039 19.9453 8.56055 19.5645 8.61914 19.541C9.41016 19.248 10.4707 18.8789 10.5176 18.873C10.5527 18.8672 11.1973 19.9219 11.9473 21.2051ZM8.70704 21.1055L9.88477 22.2949L10.1074 23.6426C10.2246 24.3809 10.3594 25.0488 10.4063 25.1191C10.5586 25.3594 10.7461 25.3418 12.1699 24.9316C12.9082 24.7207 13.5352 24.5508 13.5527 24.5508C13.5762 24.5508 13.5938 25.5645 13.5938 26.8066V29.0625H12.8906H12.1875V28.2715C12.1875 27.5039 12.1816 27.4688 12.041 27.334L11.9004 27.1875H9.375H6.84961L6.70899 27.334C6.56836 27.4688 6.5625 27.5039 6.5625 28.2715V29.0625H5.86524H5.16797L5.14453 27.1758C5.1211 25.4648 5.10352 25.2363 4.99219 24.8145C4.72852 23.8535 4.23633 22.875 3.65625 22.166L3.45117 21.9199L3.87891 21.5684C4.4707 21.082 5.06836 20.7832 6.35742 20.3262C6.9668 20.1094 7.48243 19.9277 7.5 19.9277C7.51758 19.9219 8.0625 20.4551 8.70704 21.1055ZM3.25195 23.2031C3.59766 23.7246 3.89649 24.375 4.05469 24.9492C4.16602 25.3535 4.1836 25.5938 4.20703 27.2344L4.23047 29.0625H3.05274H1.875V27.2227C1.875 25.2246 1.92188 24.7441 2.20313 23.9531C2.41992 23.3438 2.8125 22.6582 2.90625 22.7344C2.94141 22.7695 3.09961 22.9805 3.25195 23.2031ZM11.25 28.5938V29.0625H9.375H7.5V28.5938V28.125H9.375H11.25V28.5938Z"></path><path d="M11.3145 2.02154C10.5821 2.1856 9.76178 2.66021 9.19342 3.25786C8.54889 3.93755 8.39068 4.377 8.70709 4.6231C8.98834 4.84575 9.21099 4.76958 9.48638 4.37115C10.002 3.627 10.8926 3.04107 11.6895 2.92388C12.2754 2.83599 12.3692 2.80083 12.4981 2.62505C12.6329 2.44341 12.6036 2.23247 12.4102 2.05083C12.2579 1.91021 11.8829 1.89849 11.3145 2.02154Z"></path><path d="M11.6895 3.59766C11.1211 3.7793 10.5996 4.14844 10.2832 4.59961C10.0547 4.91602 10.0313 5.0625 10.1719 5.26172C10.3945 5.57813 10.7637 5.53125 11.0274 5.16211C11.3027 4.75781 11.7598 4.50586 12.375 4.42383C12.8379 4.36524 13.0254 3.9961 12.7676 3.66797C12.6621 3.53321 12.6094 3.51563 12.2871 3.52149C12.0879 3.52149 11.8184 3.55664 11.6895 3.59766Z"></path><path d="M12.1582 8.95898C11.8945 9.07617 11.748 9.31055 11.748 9.61523C11.748 9.86133 11.7773 9.92578 11.9414 10.0898C12.1055 10.2539 12.1699 10.2832 12.4219 10.2832C12.6738 10.2832 12.7383 10.2539 12.9023 10.0898C13.0664 9.92578 13.0957 9.86133 13.0957 9.60937C13.0957 9.36328 13.0664 9.29297 12.9141 9.13476C12.7207 8.9414 12.375 8.86523 12.1582 8.95898Z"></path><path d="M15.4395 8.95898C15.1758 9.07617 15.0293 9.31055 15.0293 9.61523C15.0293 9.86133 15.0586 9.92578 15.2227 10.0898C15.3867 10.2539 15.4512 10.2832 15.7031 10.2832C15.9551 10.2832 16.0195 10.2539 16.1836 10.0898C16.3477 9.92578 16.377 9.86133 16.377 9.60937C16.377 9.36328 16.3477 9.29297 16.1953 9.13476C16.002 8.9414 15.6562 8.86523 15.4395 8.95898Z"></path><path d="M13.7402 10.459C13.5996 10.5938 13.5938 10.623 13.5938 11.4844C13.5938 12.3457 13.5996 12.375 13.7402 12.5098C13.8281 12.6035 13.9512 12.6562 14.0625 12.6562C14.1738 12.6562 14.2969 12.6035 14.3848 12.5098C14.5254 12.375 14.5312 12.3457 14.5312 11.4844C14.5312 10.623 14.5254 10.5938 14.3848 10.459C14.2969 10.3652 14.1738 10.3125 14.0625 10.3125C13.9512 10.3125 13.8281 10.3652 13.7402 10.459Z"></path><path d="M12.3339 13.2715C11.6718 13.9278 13.371 14.7715 14.7246 14.4493C15.6796 14.2266 16.1835 13.7051 15.8203 13.3125C15.6503 13.1309 15.4218 13.0899 15.2402 13.2012C14.4843 13.6875 13.6054 13.711 13.0136 13.2715C12.7558 13.084 12.5156 13.084 12.3339 13.2715Z"></path><path d="M18.668 17.4082C18.3047 17.4961 17.7715 17.8066 17.5137 18.0879C17.3848 18.2285 17.1914 18.5215 17.0918 18.7383C16.916 19.1133 16.9043 19.166 16.8867 20.0098C16.8633 21.0176 16.9453 21.5332 17.2207 22.125C17.4141 22.541 17.7715 22.957 18.0762 23.1211L18.2812 23.2324V25.207V27.1875H17.7246C17.209 27.1875 17.1504 27.1992 17.0215 27.334C16.875 27.4746 16.875 27.4863 16.875 28.5938C16.875 29.7012 16.875 29.7129 17.0215 29.8535L17.1621 30H22.9687H28.7754L28.916 29.8535C29.0625 29.7129 29.0625 29.7012 29.0625 28.5938C29.0625 27.4863 29.0625 27.4746 28.916 27.334C28.7871 27.1992 28.7285 27.1875 28.2129 27.1875H27.6562V25.207V23.2324L27.8613 23.1211C28.166 22.957 28.5234 22.541 28.7168 22.125C28.9922 21.5332 29.0742 21.0176 29.0508 20.0039L29.0332 19.125L28.8164 18.6797C28.5527 18.1465 28.2129 17.8184 27.668 17.5605L27.2754 17.373L23.0859 17.3613C20.6777 17.3555 18.8027 17.3789 18.668 17.4082ZM20.625 19.2188V20.1562H19.2187H17.8125V19.8281C17.8125 19.6465 17.8418 19.3887 17.8828 19.2539C17.9707 18.9551 18.4629 18.4512 18.75 18.3574C18.8613 18.3223 19.3301 18.293 19.793 18.2871L20.625 18.2812V19.2188ZM24.375 19.2188V20.1562H22.9687H21.5625V19.2188V18.2812H22.9687H24.375V19.2188ZM27.1523 18.3516C27.4746 18.4453 27.9609 18.9316 28.0547 19.2539C28.0957 19.3887 28.125 19.6465 28.125 19.8281V20.1562H26.7187H25.3125V19.2188V18.2812H26.1094C26.5664 18.2812 27.0117 18.3105 27.1523 18.3516ZM20.5371 21.2754C20.2734 22.459 19.0312 22.9043 18.2988 22.0723C18.1406 21.8906 17.8711 21.3105 17.8711 21.1523C17.8711 21.1172 18.3984 21.0938 19.2246 21.0938H20.5781L20.5371 21.2754ZM24.2871 21.2754C24.0234 22.459 22.7812 22.9043 22.0488 22.0723C21.8906 21.8906 21.6211 21.3105 21.6211 21.1523C21.6211 21.1172 22.1484 21.0938 22.9746 21.0938H24.3281L24.2871 21.2754ZM28.0664 21.1523C28.0664 21.3105 27.7969 21.8906 27.6387 22.0723C27.1465 22.6348 26.291 22.6348 25.7988 22.0723C25.6406 21.8906 25.3711 21.3105 25.3711 21.1523C25.3711 21.1172 25.8926 21.0938 26.7187 21.0938C27.5449 21.0938 28.0664 21.1172 28.0664 21.1523ZM21.3867 22.752C21.5801 22.9629 21.7969 23.127 22.043 23.2383C22.3711 23.3906 22.4766 23.4082 22.9687 23.4082C23.4609 23.4082 23.5664 23.3906 23.8945 23.2383C24.1406 23.1211 24.3574 22.9629 24.5508 22.752L24.8437 22.4297L25.1367 22.752C25.4648 23.1094 25.9512 23.3613 26.4258 23.4199L26.7187 23.4551V25.3184V27.1875H25.7812H24.8437V25.9277C24.8437 24.6621 24.8437 24.6621 24.6973 24.5215L24.5566 24.375H22.9687H21.3809L21.2402 24.5215C21.0937 24.6621 21.0937 24.6621 21.0937 25.9277V27.1875H20.1562H19.2187V25.3184V23.4551L19.5176 23.4199C19.9863 23.3613 20.4961 23.0918 20.8008 22.7461C20.9473 22.582 21.0703 22.4473 21.082 22.4414C21.0937 22.4414 21.2285 22.582 21.3867 22.752ZM23.9062 26.25V27.1875H22.9687H22.0312V26.25V25.3125H22.9687H23.9062V26.25ZM28.125 28.5938V29.0625H22.9687H17.8125V28.5938V28.125H22.9687H28.125V28.5938Z"></path></svg>