<svg viewBox="0 0 30 30" xmlns="http://www.w3.org/2000/svg"><path d="M7.76367 0.527342C6.91406 0.662107 6.22852 0.966795 5.38477 1.58789C5.08594 1.81054 4.80469 1.99219 4.76953 1.99219C4.73438 1.99219 4.52344 2.08594 4.29492 2.19726C3.33984 2.67773 2.69531 3.70898 2.69531 4.76953C2.69531 5.36133 2.8125 5.74219 3.27539 6.67383L3.68555 7.48828L3.45703 7.52929C3.14062 7.58203 2.73047 7.85742 2.53711 8.15039C2.39062 8.37304 2.37305 8.44922 2.37305 8.91211C2.37305 9.38672 2.38477 9.43945 2.54883 9.67383C2.77734 10.002 3.17578 10.248 3.55078 10.2891L3.84375 10.3242L3.95508 10.7168C4.24219 11.7363 4.93359 12.6738 5.84766 13.2715L6.09375 13.4355V14.0625V14.6895L3.94336 15.5801C2.75391 16.0723 1.64648 16.5703 1.47656 16.6816C1.10742 16.9336 0.873047 17.2148 0.65625 17.6777L0.498047 18.0176L0.480469 21.5215L0.462891 25.0195L0.609375 25.166L0.755859 25.3125H2.49023H4.21875V27.2754V29.2441L4.36523 29.3848L4.50586 29.5312H15H25.4941L25.6348 29.3848L25.7812 29.2441V27.2754V25.3125H27.5098H29.2441L29.3848 25.166L29.5312 25.0254V21.668C29.5312 18.1582 29.5195 18.0117 29.2676 17.5195C29.0918 17.1797 28.8457 16.9043 28.5234 16.6816C28.3535 16.5703 27.2461 16.0723 26.0625 15.5801L23.9062 14.6836V14.0625V13.4355L24.1582 13.2715C25.0664 12.6738 25.7578 11.7363 26.0449 10.7168L26.1562 10.3242L26.4492 10.2891C27.1172 10.2129 27.6094 9.67383 27.6445 8.9707C27.6621 8.63672 27.6445 8.54297 27.498 8.26172C27.3047 7.89258 26.918 7.59375 26.543 7.52929C26.4141 7.50586 26.3086 7.48242 26.3086 7.4707C26.3086 7.45898 26.4316 7.16601 26.5781 6.81445C26.9121 6.04687 27 5.73047 27.0469 5.15625C27.123 4.14258 26.6836 3 25.9277 2.25586C25.4707 1.80469 25.1074 1.59375 23.8477 1.03711C22.8398 0.597654 22.4004 0.498045 21.5332 0.503904C20.373 0.521482 19.582 0.802732 18.5098 1.58789C18.2109 1.81054 17.9297 1.99219 17.8945 1.99219C17.6836 1.99219 16.9805 2.43164 16.6582 2.77148C16.043 3.41015 15.7793 4.11328 15.8379 4.98047C15.8555 5.25586 15.8906 5.53711 15.9141 5.61328C15.9492 5.73633 15.9375 5.74219 15.7852 5.70117C15.5449 5.64258 14.373 5.66015 14.0742 5.73047L13.8223 5.78906L13.8691 5.57226C13.9453 5.22656 13.9102 4.39453 13.7988 3.98437C13.5645 3.08203 12.8848 2.16211 12.123 1.71094C11.6074 1.40625 10.0312 0.726561 9.5918 0.621092C9.09375 0.498045 8.23242 0.457029 7.76367 0.527342ZM9.43359 1.55273C9.97852 1.69336 11.584 2.44922 11.9238 2.72461C12.7148 3.375 13.1133 4.37695 12.9551 5.33203C12.8379 6.04687 12.7676 6.1582 12.1523 6.60351C11.5488 7.03711 11.5371 7.04297 10.8926 7.34765C9.66211 7.92773 9 9.35156 9.3457 10.6816C9.39258 10.8633 9.61523 11.3848 9.84375 11.8359L10.2539 12.6562H9.95508C9.47461 12.6562 9.19922 12.7676 8.87695 13.0957C8.2793 13.6875 8.2793 14.4375 8.87695 15.0293C9.2168 15.375 9.47461 15.4687 10.043 15.4687C10.3418 15.4687 10.4297 15.4863 10.4297 15.5508C10.4297 15.75 10.8105 16.6641 11.0391 17.0273C11.3379 17.4844 11.9062 18.0762 12.3457 18.3809L12.6562 18.5918V19.1953V19.7988L12.3516 19.8867C12.1816 19.9336 10.6992 20.3437 9.05273 20.8008C7.41211 21.252 5.94727 21.668 5.80078 21.7148C4.86328 22.043 4.21875 22.9746 4.21875 24V24.375H2.8125H1.40039L1.41797 21.2871C1.43555 18.2168 1.43555 18.1934 1.56445 17.9473C1.63477 17.8184 1.79297 17.6309 1.9043 17.5312C2.0332 17.4258 3.02344 16.9805 4.48828 16.377C6.02344 15.7383 6.89062 15.3457 6.94922 15.2695C7.01367 15.1758 7.03125 14.918 7.03125 14.0918C7.03125 12.873 7.03711 12.8848 6.51562 12.5918C6.33398 12.4863 5.99414 12.2109 5.76562 11.9824C5.25586 11.4668 4.9043 10.8105 4.76953 10.1074C4.64648 9.47461 4.53516 9.375 3.97852 9.375C3.62109 9.375 3.55078 9.35742 3.42773 9.22851C3.23438 9.04101 3.23438 8.77148 3.42773 8.58398C3.55078 8.45508 3.62109 8.4375 3.98438 8.4375C4.34766 8.4375 4.41797 8.41992 4.54102 8.29101C4.66406 8.17383 4.6875 8.09179 4.6875 7.78125C4.6875 7.43554 4.6582 7.34765 4.17773 6.36328L3.66211 5.30859V4.78125C3.66211 4.2832 3.67383 4.21875 3.86133 3.8789C4.10156 3.43945 4.36523 3.19922 4.80469 3.00586C5.39062 2.74804 5.47266 2.70117 6.03516 2.28515C6.61523 1.85742 7.24219 1.57031 7.80469 1.46484C8.21484 1.39453 8.97656 1.43554 9.43359 1.55273ZM22.5586 1.55273C23.1035 1.69336 24.709 2.44922 25.0488 2.72461C25.6289 3.19922 25.957 3.77929 26.0859 4.55273C26.1797 5.10937 26.0742 5.625 25.6641 6.58008C25.3535 7.29492 25.3125 7.4414 25.3125 7.76953C25.3125 8.09765 25.3359 8.16797 25.459 8.29101C25.582 8.41992 25.6523 8.4375 26.0156 8.4375C26.3789 8.4375 26.4492 8.45508 26.5723 8.58398C26.7656 8.77148 26.7656 9.04101 26.5723 9.22851C26.4492 9.35742 26.3789 9.375 26.0215 9.375C25.4648 9.375 25.3535 9.47461 25.2305 10.1074C25.0957 10.8105 24.7441 11.4668 24.2344 11.9824C24.0059 12.2168 23.666 12.4922 23.4785 12.5977C22.9629 12.8848 22.9688 12.873 22.9688 14.0977C22.9688 15.0293 22.9805 15.1758 23.0742 15.2812C23.1328 15.3516 24.1699 15.8203 25.5293 16.3828C26.9824 16.9863 27.9609 17.4258 28.0957 17.5312C28.207 17.6309 28.3652 17.8184 28.4355 17.9473C28.5645 18.1934 28.5645 18.2168 28.582 21.2812L28.5996 24.375H27.1875H25.7812V24C25.7812 23.0859 25.2598 22.2246 24.4512 21.8027C24.3809 21.7676 22.7988 21.3164 20.9355 20.8008C19.0723 20.2793 17.502 19.8457 17.4492 19.8281C17.3555 19.7988 17.3438 19.7168 17.3438 19.1953V18.5918L17.666 18.375C18.1055 18.0703 18.7441 17.3848 19.0312 16.9043C19.1602 16.6816 19.3418 16.2715 19.4355 15.9902L19.5996 15.4687H19.9746C20.5312 15.4687 20.7891 15.3691 21.123 15.0293C21.7207 14.4375 21.7207 13.6875 21.123 13.0957C20.8008 12.7676 20.5254 12.6562 20.0449 12.6562C19.8809 12.6562 19.7461 12.6445 19.7461 12.6328C19.7461 12.6211 19.8691 12.3223 20.0156 11.9707C20.3496 11.2031 20.4375 10.8867 20.4844 10.3125C20.5605 9.29883 20.1328 8.17969 19.3652 7.41211C18.9727 7.01953 18.8438 6.9375 18.0527 6.55078L17.1738 6.12304L16.9805 5.71289C16.8047 5.34375 16.7871 5.25 16.7871 4.77539C16.7871 4.28906 16.7988 4.21875 16.9863 3.8789C17.2266 3.43945 17.4902 3.19922 17.9297 3.00586C18.5156 2.74804 18.5977 2.70117 19.1602 2.28515C19.7402 1.85742 20.3672 1.57031 20.9297 1.46484C21.3398 1.39453 22.1016 1.43554 22.5586 1.55273ZM16.0078 6.70898C16.5234 6.84375 18.1582 7.61719 18.4863 7.88086C19.4883 8.70117 19.834 10.0957 19.3125 11.2266L19.1777 11.5137L18.9082 10.9746C18.498 10.166 18.3691 10.1367 17.6074 10.6992C16.6289 11.4199 16.1367 11.6309 15.2695 11.6953C14.2852 11.7715 13.4766 11.502 12.4922 10.7754C11.6133 10.125 11.502 10.1426 11.0742 11.0098C10.9336 11.3027 10.7988 11.543 10.7812 11.543C10.7578 11.543 10.623 11.2969 10.4824 10.998C10.2363 10.4824 10.2246 10.4355 10.2246 9.93164C10.2246 9.44531 10.2363 9.375 10.4238 9.03515C10.6582 8.60156 10.916 8.36133 11.3672 8.15039C11.6367 8.02148 11.7715 7.99804 12.1875 7.99804C12.6211 7.99804 12.7383 8.02148 13.0664 8.17969C13.4531 8.36133 13.7402 8.5957 14.0098 8.95898L14.1562 9.1582L14.5195 8.91211C14.7188 8.77734 14.8828 8.64258 14.8828 8.61914C14.8828 8.53125 14.4434 7.99804 14.1855 7.78125C13.9102 7.54687 13.3066 7.20703 13.1602 7.20703C12.9141 7.20703 13.125 7.04297 13.6113 6.84961C14.3145 6.5625 15.252 6.50976 16.0078 6.70898ZM12.4219 11.8652C13.2656 12.4219 13.9512 12.6211 15 12.6211C16.0488 12.6211 16.7344 12.4219 17.5781 11.8652C17.8477 11.6895 18.082 11.543 18.1055 11.543C18.123 11.543 18.2812 11.8301 18.4512 12.1758L18.7617 12.8086L18.7383 14.0332C18.7148 15.1816 18.7031 15.293 18.5625 15.6914C18.3457 16.3008 18.0762 16.7227 17.6367 17.168C17.1914 17.6074 16.7695 17.877 16.1602 18.0937C15.791 18.2227 15.6387 18.2461 15.0293 18.252C14.4609 18.252 14.25 18.2285 13.916 18.123C12.9609 17.8184 12.1055 17.0977 11.6719 16.2305C11.3262 15.5391 11.25 15.123 11.25 13.8457V12.7734L11.5547 12.1582C11.7246 11.8184 11.877 11.543 11.8945 11.543C11.918 11.543 12.1523 11.6895 12.4219 11.8652ZM10.3125 14.0625V14.5312H9.99023C9.59766 14.5312 9.375 14.3613 9.375 14.0625C9.375 13.7637 9.59766 13.5937 9.99023 13.5937H10.3125V14.0625ZM20.4785 13.7402C20.5723 13.8281 20.625 13.9512 20.625 14.0625C20.625 14.3613 20.4023 14.5312 20.0098 14.5312H19.6875V14.0625V13.5937H20.0098C20.2793 13.5937 20.3613 13.6172 20.4785 13.7402ZM15 19.1777C15.5273 19.1777 15.8965 19.1484 16.1016 19.0898L16.4062 19.002V19.4766V19.9512L15.7031 20.6543L15 21.3574L14.2969 20.6543L13.5938 19.9512V19.4766V19.002L13.9043 19.0898C14.1035 19.1484 14.4727 19.1777 15 19.1777ZM13.8867 21.5918C14.707 22.4004 14.8242 22.5 15 22.5C15.1758 22.5 15.293 22.4004 16.1133 21.5918L17.0273 20.6836L20.5078 21.6504C24.2051 22.6758 24.3047 22.7168 24.5918 23.1387C24.668 23.25 24.75 23.4316 24.7852 23.5488C24.8203 23.6719 24.8438 24.7383 24.8438 26.1738V28.5937H23.4375H22.0312V26.7187V24.8437H21.5625H21.0938V26.7187V28.5937H15H8.90625V26.7187V24.8437H8.4375H7.96875V26.7187V28.5937H6.5625H5.15625V26.1738C5.15625 24.7383 5.17969 23.6719 5.21484 23.5488C5.25 23.4316 5.33203 23.25 5.4082 23.1387C5.68945 22.7168 5.80078 22.6758 9.46289 21.6562C11.3672 21.123 12.9316 20.6895 12.9492 20.6895C12.9609 20.6836 13.3828 21.0937 13.8867 21.5918Z"></path></svg>