<svg viewBox="0 0 30 30" xmlns="http://www.w3.org/2000/svg"><g clip-path="url(#clip0_692_2419)"><path d="M0.433569 0.626943C0.363257 0.638662 0.246069 0.714834 0.169897 0.796865L0.0292725 0.949209L0.0116943 4.11913C-2.44118e-05 6.43358 0.0175537 7.33593 0.0644287 7.45897C0.216772 7.8164 -0.896508 7.79296 15 7.79296C30.8965 7.79296 29.7832 7.8164 29.9355 7.45897C29.9824 7.33593 30 6.43358 29.9883 4.11913L29.9707 0.93749L29.8066 0.779287L29.6484 0.615224L15.0996 0.609365C7.10154 0.603506 0.498022 0.615224 0.433569 0.626943ZM28.8281 4.18944V6.62108H15H1.17185V4.18944V1.7578H15H28.8281V4.18944Z"></path><path d="M24.7441 2.21484C23.9414 2.50195 23.4551 3.23438 23.5078 4.08984C23.5781 5.28516 24.7324 6.08789 25.9101 5.74805L26.1914 5.67188L26.5195 5.9707C26.7949 6.22852 26.8769 6.26953 27.082 6.26953C27.5391 6.26953 27.8144 5.76563 27.5625 5.39063C27.5039 5.30859 27.3691 5.14453 27.2578 5.02734C27.0586 4.81641 27.0527 4.80469 27.1172 4.55859C27.2637 3.99023 27.2285 3.52734 27.0117 3.10547C26.6133 2.33789 25.5703 1.92188 24.7441 2.21484ZM25.7285 3.41602C26.0918 3.66211 26.1445 4.14258 25.834 4.44727C25.2715 5.00977 24.3633 4.3125 24.7676 3.62695C24.8789 3.43945 25.1484 3.28711 25.3769 3.28125C25.459 3.28125 25.6172 3.33984 25.7285 3.41602Z"></path><path d="M5.63083 4.86913C5.33786 5.15624 5.40818 5.59569 5.77146 5.77148C5.94138 5.84765 6.68552 5.85937 12.0937 5.85937C18.6914 5.85937 18.5332 5.86523 18.6914 5.5664C18.8262 5.3203 18.7793 5.02733 18.5801 4.85155L18.3984 4.68749H12.1054H5.81247L5.63083 4.86913Z"></path><path d="M20.0332 4.85743C19.5937 5.30274 20.0566 6.03516 20.6308 5.80079C20.8711 5.70118 20.9765 5.5254 20.9765 5.23829C20.9765 4.74024 20.3906 4.50587 20.0332 4.85743Z"></path><path d="M0.46875 8.68945C0.328125 8.73633 0.228516 8.82422 0.164062 8.96484C0.0644531 9.1582 0.0585938 9.56836 0.0585938 15C0.0585938 20.4316 0.0644531 20.8418 0.164062 21.0352C0.228516 21.1758 0.328125 21.2637 0.46875 21.3105C0.767578 21.4102 18.334 21.4102 18.6328 21.3105C18.7734 21.2637 18.873 21.1758 18.9375 21.0352C19.0371 20.8418 19.043 20.4316 19.043 15C19.043 9.56836 19.0371 9.1582 18.9375 8.96484C18.873 8.82422 18.7734 8.73633 18.6328 8.68945C18.334 8.58984 0.767578 8.58984 0.46875 8.68945ZM17.8711 14.543C17.8711 17.5254 17.8477 19.2773 17.8184 19.248C17.7832 19.2129 16.7402 17.8301 15.498 16.1719C14.2559 14.5137 13.1777 13.125 13.1074 13.084C12.9492 12.9961 12.6855 12.9902 12.5449 13.0664C12.4863 13.0957 11.5898 14.2559 10.5527 15.6387L8.66016 18.1582L8.21484 17.6426C7.96289 17.3613 7.35352 16.6465 6.85547 16.0664C5.91211 14.9648 5.69531 14.7891 5.39062 14.8535C5.19141 14.9004 4.98633 15.1172 2.87109 17.5781C2.05664 18.5273 1.35352 19.3477 1.30664 19.3945C1.24219 19.4648 1.23047 18.6914 1.23047 14.6309V9.78516H9.55078H17.8711V14.543ZM13.3184 15.2051L13.7695 15.8203H12.8262H11.8828L12.0234 15.627C12.1055 15.5273 12.3105 15.2461 12.4863 15.0117C12.6562 14.7832 12.8145 14.5898 12.832 14.5898C12.8496 14.5957 13.0664 14.8711 13.3184 15.2051ZM6.72656 17.7188C7.37695 18.4746 7.91016 19.1074 7.91016 19.125C7.91016 19.1484 7.73438 19.4004 7.51758 19.6875L7.11914 20.2148H4.66992C2.78906 20.2148 2.2207 20.1973 2.23828 20.1445C2.26758 20.0566 5.4668 16.3477 5.51367 16.3477C5.53125 16.3477 6.08203 16.9629 6.72656 17.7188ZM15.791 18.5156C16.4238 19.3594 16.9512 20.0801 16.9746 20.127C16.998 20.2031 16.4531 20.2148 12.8027 20.2148C9.46289 20.2148 8.61328 20.1973 8.64844 20.1387C8.67188 20.1035 8.91797 19.7695 9.1875 19.4063L9.67969 18.75H11.127C12.3809 18.75 12.5977 18.7383 12.7734 18.6445C13.0547 18.5098 13.1602 18.2754 13.0723 17.9883C12.9609 17.6074 12.8613 17.5781 11.6602 17.5781C11.0801 17.5781 10.6055 17.5664 10.6055 17.5488C10.6055 17.5313 10.6934 17.3965 10.7988 17.2559L10.9863 16.998L12.8145 16.9922H14.6484L15.791 18.5156Z"></path><path d="M7.40034 10.5996C6.86128 10.7871 6.46284 11.1563 6.19917 11.707C5.77143 12.5977 6.09956 13.7285 6.93159 14.2617C7.34174 14.5254 7.59956 14.5957 8.07417 14.5957C9.62104 14.5898 10.5937 12.9785 9.89057 11.584C9.72065 11.25 9.29292 10.8516 8.91792 10.6758C8.47846 10.4766 7.83979 10.4414 7.40034 10.5996ZM8.5019 11.7891C8.94135 12.0352 9.0937 12.6738 8.80073 13.0605C8.41987 13.5762 7.57026 13.5352 7.28315 12.9902C6.86714 12.1934 7.7226 11.3496 8.5019 11.7891Z"></path><path d="M20.2148 8.68945C20.0742 8.73633 19.9746 8.82422 19.9102 8.96484C19.8105 9.1582 19.8047 9.56836 19.8047 14.9766C19.8047 18.9668 19.8223 20.8418 19.8691 20.9648C19.9043 21.0645 20.0039 21.1934 20.0859 21.252C20.2383 21.3516 20.4961 21.3574 24.9023 21.3574C29.2969 21.3574 29.5723 21.3516 29.7246 21.252C29.8184 21.1934 29.9121 21.082 29.9414 21C30.0352 20.7598 30.0176 9.14648 29.9238 8.96484C29.8828 8.88281 29.7598 8.77148 29.6484 8.71875C29.4609 8.61914 29.1152 8.61328 24.9316 8.61914C21.5977 8.61914 20.3672 8.63672 20.2148 8.68945ZM28.8281 15V20.2148L24.9199 20.2031L21.0059 20.1855L20.9883 15.0586C20.9824 12.2402 20.9883 9.89648 21.0059 9.85547C21.0234 9.80273 21.8672 9.78516 24.9316 9.78516H28.8281V15Z"></path><path d="M21.9668 10.9512C21.6679 11.25 21.7734 11.7539 22.1601 11.8887C22.2773 11.9297 23.2324 11.9531 24.914 11.9531C27.7734 11.9531 27.8261 11.9473 27.9726 11.5898C28.084 11.332 28.0312 11.1035 27.8203 10.9277L27.6445 10.7812H24.8906H22.1367L21.9668 10.9512Z"></path><path d="M22.0781 13.2129C21.8789 13.3242 21.7969 13.4707 21.7969 13.7227C21.7969 13.9629 21.9141 14.1387 22.1309 14.2324C22.2539 14.2793 23.0391 14.2969 25.0078 14.2852L27.7148 14.2676L27.8672 14.1094C28.084 13.8926 28.084 13.5293 27.8672 13.3125L27.7148 13.1543L24.9727 13.1426C22.6406 13.1309 22.2129 13.1426 22.0781 13.2129Z"></path><path d="M22.1484 15.5332C21.791 15.6738 21.6796 16.1484 21.9374 16.4473L22.0781 16.6113L24.8671 16.6289L27.6503 16.6465L27.832 16.4824C27.9726 16.3535 28.0195 16.2598 28.0253 16.1016C28.0312 15.8555 27.8847 15.6035 27.6796 15.5273C27.4804 15.4512 22.3417 15.457 22.1484 15.5332Z"></path><path d="M22.0781 17.9063C21.5801 18.1758 21.7793 18.9844 22.3418 18.9844C22.5937 18.9844 22.8808 18.7617 22.9277 18.5332C22.9746 18.2754 22.8281 17.9941 22.5937 17.9004C22.3418 17.7949 22.2773 17.7949 22.0781 17.9063Z"></path><path d="M24.3749 17.877C23.9941 18.0293 23.9003 18.5215 24.1933 18.8145L24.3632 18.9844H26.0039H27.6445L27.8203 18.8379C28.0312 18.6621 28.0839 18.4336 27.9726 18.1758C27.8378 17.8418 27.6738 17.8125 26.0039 17.8184C25.1835 17.8184 24.457 17.8477 24.3749 17.877Z"></path><path d="M0.369141 22.2773C0.0644531 22.4238 0.0585938 22.4824 0.0585938 25.7754C0.0585938 29.1914 0.0585938 29.168 0.433594 29.3262C0.609375 29.4023 1.32422 29.4141 5.16797 29.4141C9.36328 29.4141 9.71484 29.4082 9.90234 29.3086C10.0137 29.2559 10.1367 29.1445 10.1777 29.0625C10.2715 28.8809 10.2891 22.8281 10.2012 22.5996C10.166 22.5176 10.084 22.3945 10.0137 22.3301C9.87891 22.207 9.87305 22.207 5.19141 22.2129C2.00977 22.2129 0.457031 22.2363 0.369141 22.2773ZM9.08203 25.8105V28.2422H5.15625H1.23047V25.8105V23.3789H5.15625H9.08203V25.8105Z"></path><path d="M11.3027 22.377L11.1328 22.5469V25.7988V29.0449L11.2852 29.1973C11.3672 29.2852 11.5195 29.3672 11.625 29.3848C11.7246 29.4023 15.8203 29.4082 20.7246 29.4023L29.6484 29.3848L29.8066 29.2207L29.9707 29.0625L29.9883 25.9102C29.9941 24.1816 29.9883 22.6992 29.9707 22.6289C29.9531 22.5527 29.8652 22.4238 29.7832 22.3477L29.6309 22.207H20.5547H11.4727L11.3027 22.377ZM28.8281 25.8105V28.2422H20.5664H12.3047V25.8105V23.3789H20.5664H28.8281V25.8105Z"></path><path d="M14.08 25.3066C13.5937 25.6055 13.8163 26.3672 14.3906 26.3672C14.6835 26.3672 14.9413 26.1035 14.9413 25.8106C14.9413 25.5352 14.8652 25.3945 14.6484 25.2832C14.4257 25.166 14.3085 25.1719 14.08 25.3066Z"></path><path d="M16.3652 25.2832C15.9902 25.4414 15.9199 25.9277 16.2246 26.2031L16.4063 26.3672H21.5391H26.6719L26.8418 26.1973C27.1465 25.8867 27.0352 25.4062 26.6191 25.248C26.5371 25.2188 24.4688 25.1953 21.5156 25.1953C17.4316 25.2012 16.5176 25.2129 16.3652 25.2832Z"></path></g><defs><clipPath id="clip0_692_2419"><rect width="30" height="30" fill="currentColor"></rect></clipPath></defs></svg>