<svg viewBox="0 0 30 30" xmlns="http://www.w3.org/2000/svg"><path d="M1.875 1.01367C1.58789 1.10742 1.0957 1.61133 1.00781 1.91015C0.908203 2.26172 0.908203 22.1133 1.00781 22.4648C1.10156 22.7871 1.58789 23.2734 1.91016 23.3672C2.0918 23.4199 3.28711 23.4375 6.63281 23.4375H11.1211L10.5352 25.7812L9.94922 28.125H8.95899H7.96875V28.5937V29.0625H15H22.0313V28.5937V28.125H21.041H20.0508L19.4648 25.7812L18.8789 23.4375H23.373C28.4883 23.4375 28.2305 23.4609 28.6699 22.9687C28.8105 22.8164 28.957 22.582 28.9922 22.4531C29.0918 22.1191 29.0918 2.25586 28.9922 1.92187C28.957 1.79297 28.8105 1.55859 28.6699 1.40625C28.207 0.890623 29.5195 0.937498 14.9766 0.943357C5.75391 0.949217 2.02148 0.966795 1.875 1.01367ZM27.9785 2.02148C28.1016 2.13867 28.125 2.2207 28.125 2.49023V2.8125H16.4063H4.6875V3.28125V3.75H16.4063H28.125V11.7187V19.6875H15H1.875V10.9277V2.16211L2.02148 2.02148L2.16211 1.875H15H27.8379L27.9785 2.02148ZM28.125 21.416C28.125 22.1836 28.1191 22.2187 27.9785 22.3535L27.8379 22.5H15H2.16211L2.02148 22.3535C1.88086 22.2187 1.875 22.1836 1.875 21.416V20.625H15H28.125V21.416ZM18.5039 25.7812L19.0898 28.125H15H10.9102L11.4961 25.7812L12.082 23.4375H15H17.918L18.5039 25.7812Z"></path><path d="M2.8125 3.28125V3.75H3.28125H3.75V3.28125V2.8125H3.28125H2.8125V3.28125Z"></path><path d="M7.03125 11.7188V18.75H7.5H7.96875V11.7188V4.6875H7.5H7.03125V11.7188Z"></path><path d="M9.65041 5.61328C8.66603 6.60938 8.66603 6.51562 9.66798 7.52344L10.4297 8.29102L10.7637 7.95703L11.1035 7.61719L10.5762 7.08984L10.0488 6.5625L10.5645 6.04688C10.8457 5.76562 11.0742 5.50781 11.0742 5.47266C11.0742 5.39648 10.5293 4.86328 10.4531 4.86328C10.4238 4.86328 10.0606 5.20312 9.65041 5.61328Z"></path><path d="M14.5137 5.14453C14.3613 5.29688 14.2383 5.44922 14.2383 5.47852C14.2383 5.50781 14.4668 5.76562 14.748 6.04688L15.2637 6.5625L14.7363 7.08984L14.209 7.61719L14.5488 7.95703L14.8828 8.29102L15.6445 7.52344C16.6465 6.51562 16.6465 6.60938 15.6621 5.61328C15.252 5.20312 14.8887 4.86328 14.8535 4.86328C14.8184 4.86328 14.666 4.99219 14.5137 5.14453Z"></path><path d="M2.8125 5.625V6.09375H3.98437H5.15625V5.625V5.15625H3.98437H2.8125V5.625Z"></path><path d="M12.2285 6.58008C11.9766 7.20117 11.7773 7.73437 11.7773 7.76367C11.7773 7.79883 11.9648 7.89258 12.1934 7.98047L12.6094 8.13281L12.6855 7.95117C13.1602 6.80273 13.5234 5.82422 13.4883 5.78906C13.4648 5.76562 13.2715 5.68359 13.0606 5.60156L12.6738 5.45508L12.2285 6.58008Z"></path><path d="M17.3438 6.5625V7.03125H22.2656H27.1875V6.5625V6.09375H22.2656H17.3438V6.5625Z"></path><path d="M2.8125 7.96875V8.4375H3.98437H5.15625V7.96875V7.5H3.98437H2.8125V7.96875Z"></path><path d="M16.875 8.4375V8.90625H20.8594H24.8438V8.4375V7.96875H20.8594H16.875V8.4375Z"></path><path d="M2.8125 10.3125V10.7812H3.98437H5.15625V10.3125V9.84375H3.98437H2.8125V10.3125Z"></path><path d="M8.90625 10.3125V10.7812H14.7656H20.625V10.3125V9.84375H14.7656H8.90625V10.3125Z"></path><path d="M9.84375 12.1875V12.6562H17.8125H25.7813V12.1875V11.7188H17.8125H9.84375V12.1875Z"></path><path d="M3.75 12.6562V13.125H4.92188H6.09375V12.6562V12.1875H4.92188H3.75V12.6562Z"></path><path d="M8.90625 14.0625V14.5312H12.1875H15.4688V14.0625V13.5938H12.1875H8.90625V14.0625Z"></path><path d="M3.75 15V15.4688H4.92188H6.09375V15V14.5312H4.92188H3.75V15Z"></path><path d="M17.6192 15.9258C16.6348 16.9219 16.6348 16.8281 17.6367 17.8359L18.3985 18.6035L18.7324 18.2695L19.0723 17.9297L18.5449 17.4023L18.0176 16.875L18.5332 16.3594C18.8145 16.0781 19.043 15.8203 19.043 15.7852C19.043 15.709 18.4981 15.1758 18.4219 15.1758C18.3926 15.1758 18.0293 15.5156 17.6192 15.9258Z"></path><path d="M22.4824 15.457C22.3301 15.6094 22.207 15.7617 22.207 15.791C22.207 15.8203 22.4355 16.0781 22.7168 16.3594L23.2324 16.875L22.7051 17.4023L22.1777 17.9297L22.5176 18.2695L22.8516 18.6035L23.6133 17.8359C24.6152 16.8281 24.6152 16.9219 23.6309 15.9258C23.2207 15.5156 22.8574 15.1758 22.8223 15.1758C22.7871 15.1758 22.6348 15.3047 22.4824 15.457Z"></path><path d="M10.7812 15.9375V16.4062H13.3594H15.9375V15.9375V15.4688H13.3594H10.7812V15.9375Z"></path><path d="M20.1973 16.8926C19.9453 17.5137 19.7461 18.0469 19.7461 18.0762C19.7461 18.1524 20.5254 18.457 20.5781 18.4043C20.6074 18.375 20.9355 17.5781 21.4863 16.1895C21.5039 16.1484 21.4512 16.0899 21.3809 16.0606C21.3047 16.0313 21.1055 15.9551 20.9414 15.8906L20.6426 15.7734L20.1973 16.8926Z"></path><path d="M3.75 17.3438V17.8125H4.92188H6.09375V17.3438V16.875H4.92188H3.75V17.3438Z"></path><path d="M9.84375 17.8125V18.2812H12.4219H15V17.8125V17.3438H12.4219H9.84375V17.8125Z"></path></svg>