<svg viewBox="0 0 20 20" xmlns="http://www.w3.org/2000/svg"><path d="M8.84766 0.0546837C8.42578 0.187496 8.03125 0.480465 7.81641 0.812496C7.62891 1.10937 7.53906 1.41796 7.51172 1.86328L7.48828 2.26171L7.34766 2.30859C7.26953 2.33203 7 2.4375 6.74609 2.54687L6.28906 2.74218L6.01953 2.49218C5.38281 1.90234 4.57812 1.76562 3.84766 2.125C3.61328 2.24218 3.47266 2.36328 2.90234 2.9375C2.33984 3.5039 2.21094 3.65625 2.11328 3.86718C1.76953 4.59765 1.91016 5.39062 2.49219 6.01953L2.74219 6.29297L2.60547 6.59375C2.53125 6.75781 2.42188 7.02734 2.36328 7.1914L2.25781 7.48828L1.86328 7.51172C1.02734 7.55859 0.484375 7.91015 0.148438 8.61718L0.0195312 8.88672V10V11.1133L0.148438 11.3828C0.484375 12.0898 1.02734 12.4414 1.86328 12.4883L2.25781 12.5117L2.36328 12.8086C2.42188 12.9727 2.53125 13.2422 2.60547 13.4062L2.74219 13.707L2.49219 13.9805C2.05078 14.457 1.86328 15.0078 1.94922 15.5781C2.03125 16.1211 2.14453 16.3008 2.90234 17.0625C3.66016 17.8242 3.87891 17.9687 4.39844 18.0469C5.00781 18.1406 5.55859 17.9492 6.0625 17.4687L6.28516 17.2578L6.74609 17.4531C7 17.5625 7.26953 17.668 7.34766 17.6914L7.48828 17.7383L7.51172 18.1367C7.55859 18.9727 7.90625 19.5156 8.61719 19.8516L8.88672 19.9805H10H11.1133L11.3828 19.8516C12.0898 19.5195 12.4414 18.9727 12.4883 18.1406L12.5117 17.7461L12.8086 17.6367C12.9727 17.5781 13.2422 17.4687 13.4102 17.3906L13.7109 17.2539L13.9375 17.4687C14.4414 17.9492 14.9961 18.1406 15.6094 18.0469C16.1211 17.9687 16.3438 17.8203 17.0977 17.0625C17.6602 16.4961 17.7891 16.3437 17.8867 16.1328C18.2266 15.4023 18.0898 14.6055 17.5078 13.9805L17.2578 13.7109L17.4531 13.2539C17.5625 13 17.6719 12.7305 17.6992 12.6523L17.7461 12.5117L18.1406 12.4883C18.9727 12.4414 19.5195 12.0898 19.8516 11.3828L19.9805 11.1133V10V8.88672L19.8516 8.61718C19.5195 7.91015 18.9727 7.55859 18.1406 7.51172L17.7461 7.48828L17.6992 7.34765C17.6719 7.26953 17.5625 7 17.4531 6.74609L17.2578 6.28906L17.5078 6.01953C18.0977 5.38281 18.2344 4.57812 17.875 3.84765C17.7578 3.61328 17.6367 3.47265 17.0625 2.90234C16.4961 2.33984 16.3438 2.21093 16.1328 2.11328C15.4023 1.76953 14.6094 1.91015 13.9805 2.49218L13.707 2.74218L13.4062 2.60937C13.2422 2.53125 12.9688 2.42187 12.8047 2.35937L12.5 2.24609V2.01171C12.5 1.26562 12.2148 0.675777 11.6797 0.30859C11.2734 0.0312462 11.1094 -3.8147e-06 9.98828 0.00390244C9.30859 0.00390244 8.95703 0.0195274 8.84766 0.0546837ZM10.9102 1.26562C10.9961 1.30859 11.1094 1.41015 11.1641 1.49609C11.2656 1.64843 11.2695 1.68359 11.2891 2.30078C11.3164 3.18359 11.293 3.15234 12.1289 3.41796C12.3867 3.5 12.8359 3.6914 13.125 3.83593C13.625 4.08984 13.6641 4.10546 13.875 4.08984L14.0977 4.07812L14.5469 3.64062C15.0508 3.15234 15.1797 3.08593 15.4805 3.16406C15.6172 3.20312 15.7422 3.30859 16.2188 3.78125C16.6914 4.25781 16.7969 4.38281 16.8359 4.51953C16.9141 4.82031 16.8477 4.94921 16.3594 5.45312L15.9219 5.90234L15.9102 6.125C15.8945 6.33593 15.9102 6.375 16.1641 6.875C16.3086 7.16406 16.5 7.61328 16.582 7.87109C16.8477 8.70703 16.8164 8.68359 17.6992 8.71093C18.3164 8.73047 18.3516 8.73437 18.5039 8.83593C18.7812 9.01953 18.8086 9.1289 18.8086 10C18.8086 10.8711 18.7812 10.9805 18.5039 11.1641C18.3516 11.2656 18.3164 11.2695 17.6992 11.2891C16.8164 11.3164 16.8477 11.293 16.582 12.1289C16.5 12.3867 16.3086 12.8359 16.1641 13.125C15.9102 13.625 15.8945 13.6641 15.9102 13.875L15.9219 14.0977L16.3594 14.5469C16.8477 15.0508 16.9141 15.1797 16.8359 15.4766C16.7969 15.6172 16.6914 15.7422 16.2188 16.2187C15.7422 16.6914 15.6172 16.7969 15.4805 16.8359C15.1797 16.9141 15.0508 16.8477 14.5469 16.3594L14.0977 15.9219L13.875 15.9102C13.6641 15.8945 13.625 15.9102 13.125 16.1641C12.8359 16.3086 12.3867 16.5 12.1289 16.582C11.293 16.8477 11.3164 16.8164 11.2891 17.6992C11.2695 18.3164 11.2656 18.3516 11.1641 18.5039C10.9805 18.7812 10.8711 18.8086 10 18.8086C9.12891 18.8086 9.01953 18.7812 8.83594 18.5039C8.73438 18.3516 8.73047 18.3164 8.71094 17.6992C8.68359 16.8164 8.70703 16.8477 7.87109 16.582C7.61328 16.5 7.16406 16.3086 6.875 16.1641C6.375 15.9102 6.33594 15.8945 6.125 15.9102L5.90234 15.9219L5.45312 16.3594C4.94922 16.8477 4.82031 16.9141 4.51953 16.8359C4.38281 16.7969 4.25781 16.6914 3.78125 16.2187C3.30859 15.7422 3.20312 15.6172 3.16406 15.4766C3.08594 15.1797 3.15234 15.0508 3.64062 14.5469L4.07812 14.0977L4.08984 13.875C4.10547 13.6641 4.08984 13.625 3.83594 13.125C3.69141 12.8359 3.5 12.3867 3.41797 12.1289C3.15234 11.293 3.18359 11.3164 2.30078 11.2891C1.68359 11.2695 1.64844 11.2656 1.49609 11.1641C1.21875 10.9805 1.19141 10.8711 1.19141 10C1.19141 9.1289 1.21875 9.01953 1.49609 8.83593C1.64844 8.73437 1.68359 8.73047 2.30078 8.71093C3.18359 8.68359 3.15234 8.70703 3.41797 7.87109C3.5 7.61328 3.69141 7.16406 3.83594 6.875C4.08984 6.375 4.10547 6.33593 4.08984 6.125L4.07812 5.90234L3.64062 5.45312C3.15234 4.94921 3.08594 4.82031 3.16406 4.51953C3.20312 4.38281 3.30859 4.25781 3.78125 3.78125C4.42188 3.14062 4.53125 3.07812 4.83984 3.16406C4.96875 3.19921 5.09766 3.30078 5.45312 3.64062C5.89844 4.07031 5.90234 4.07421 6.11328 4.09375C6.31641 4.10937 6.35547 4.09375 6.88281 3.83203C7.19141 3.67968 7.66016 3.48437 7.92578 3.39843C8.19531 3.3125 8.45312 3.21484 8.49609 3.1875C8.66797 3.07421 8.71094 2.89843 8.71094 2.33593C8.71094 1.72265 8.74609 1.5664 8.92578 1.38671C9.10938 1.20312 9.27734 1.17578 10.0781 1.18359C10.6562 1.1914 10.7852 1.20312 10.9102 1.26562Z"></path><path d="M9.42188 5.66797C8.82422 5.7461 8.03125 6.04297 7.55469 6.3711C7.21484 6.60156 6.84766 6.94531 6.58203 7.27344C6.27344 7.66016 5.89844 8.39063 5.78125 8.84766C5.58984 9.58985 5.58984 10.418 5.78125 11.1523C5.875 11.5 6.17188 12.1602 6.37109 12.4453C7.14453 13.5742 8.37891 14.2734 9.74609 14.3594C11.1445 14.4492 12.5234 13.8359 13.418 12.7266C13.7266 12.3398 14.1016 11.6094 14.2188 11.1523C14.4102 10.4102 14.4102 9.58985 14.2188 8.84766C14.1016 8.39063 13.7266 7.66016 13.418 7.27344C12.9766 6.72656 12.5117 6.36328 11.8633 6.05469C11.1055 5.69141 10.2578 5.5586 9.42188 5.66797ZM10.7617 6.9375C11.8984 7.24219 12.7305 8.06641 13.0547 9.21094C13.1797 9.64063 13.1758 10.3633 13.0547 10.7969C12.7383 11.9023 11.9023 12.7383 10.793 13.0547C10.3594 13.1797 9.64063 13.1797 9.20313 13.0547C8.08594 12.7344 7.26563 11.9141 6.94531 10.7969C6.83203 10.3945 6.82422 9.64453 6.92969 9.25781C7.28516 7.96485 8.27734 7.07422 9.58984 6.85938C9.80859 6.82813 10.5234 6.8711 10.7617 6.9375Z"></path></svg>