<svg viewBox="0 0 30 30" xmlns="http://www.w3.org/2000/svg"><path d="M14.0449 0.140627C13.8574 0.216799 13.6055 0.351564 13.4883 0.433596C13.3652 0.515627 10.4062 3.45117 6.90233 6.95508C1.76952 12.0996 0.509752 13.3887 0.386705 13.6348C-0.175796 14.7715 0.0117046 16.0137 0.873033 16.8809C1.4121 17.4141 2.09764 17.6953 2.8828 17.6953H3.28124V22.3828C3.28124 25.5527 3.30467 27.1641 3.34569 27.375C3.56835 28.4414 4.42967 29.4082 5.49608 29.7773C5.8828 29.9121 5.9121 29.9121 8.74218 29.9121C11.5312 29.9121 11.5957 29.9121 11.7539 29.7891C11.8418 29.7246 11.9707 29.5957 12.0351 29.5078C12.1582 29.3496 12.1582 29.2734 12.1875 25.4355L12.2168 21.5215L12.3926 21.2344C12.6152 20.877 13.0664 20.5898 13.5 20.5371C13.6641 20.5137 14.4844 20.5078 15.3223 20.5195L16.8457 20.5371L17.1562 20.707C17.4492 20.8711 17.6367 21.0645 17.8183 21.3867C17.8828 21.5098 17.9062 22.2305 17.9297 25.4414C17.959 29.2734 17.959 29.3496 18.082 29.5078C18.1465 29.5957 18.2754 29.7246 18.3633 29.7891C18.5215 29.9121 18.5859 29.9121 21.375 29.9121C24.2051 29.9121 24.2344 29.9121 24.6211 29.7773C25.6875 29.4082 26.5488 28.4414 26.7715 27.375C26.8125 27.1641 26.8359 25.5527 26.8359 22.3828V17.6953H27.2344C28.3359 17.6953 29.2969 17.1094 29.7715 16.1426C29.9707 15.7383 29.9707 15.7266 29.9707 14.9414C29.9707 13.6055 30.6445 14.3965 23.1211 6.87891C15.6445 -0.603514 16.3945 0.0410175 15.1172 0.0117207C14.4551 1.90735e-06 14.3555 0.0117207 14.0449 0.140627ZM15.4922 1.81641C15.8379 1.98047 28.084 14.2441 28.2129 14.543C28.3359 14.8418 28.3242 15.0938 28.1777 15.3867C27.9609 15.8379 27.7793 15.9023 26.6484 15.9375C25.5879 15.9668 25.5117 15.9902 25.2305 16.3711C25.1074 16.5293 25.1074 16.5938 25.0781 21.8438L25.0488 27.1582L24.8848 27.4336C24.7969 27.5859 24.6387 27.7793 24.5332 27.8555C24.123 28.1719 24 28.1836 21.7617 28.1836H19.6875V24.9023C19.6875 22.752 19.6641 21.5215 19.623 21.3164C19.3945 20.2148 18.5098 19.2656 17.373 18.9082C16.9863 18.7852 16.8574 18.7793 15.0586 18.7793C12.9609 18.7793 12.8555 18.791 12.1055 19.1719C11.3613 19.5469 10.6699 20.4727 10.4941 21.3164C10.4531 21.5215 10.4297 22.752 10.4297 24.9023V28.1836H8.35546C6.11718 28.1836 5.99413 28.1719 5.58397 27.8555C5.4785 27.7793 5.3203 27.5859 5.23241 27.4336L5.06835 27.1582L5.03905 21.8438C5.00975 16.5938 5.00975 16.5293 4.88671 16.3711C4.60546 15.9902 4.52928 15.9668 3.46874 15.9375C2.33788 15.9023 2.15624 15.8379 1.93944 15.3867C1.79296 15.0938 1.78124 14.8418 1.90428 14.543C2.02733 14.25 14.2793 1.98633 14.6191 1.81641C14.918 1.66992 15.1933 1.66992 15.4922 1.81641Z"></path></svg>