<svg viewBox="0 0 30 30" xmlns="http://www.w3.org/2000/svg"><path d="M2.1879 0.0588875C1.74013 0.16722 1.08291 0.549993 0.765139 0.896654C0.606252 1.06999 0.367922 1.43109 0.245146 1.69831L0.0140381 2.18219V6.91268V11.6432L0.245146 12.1271C0.56292 12.7987 0.967359 13.2176 1.62457 13.5426L2.17345 13.8098H6.91117H11.6489L12.1978 13.5426C12.855 13.2176 13.2594 12.7987 13.5772 12.1271L13.8083 11.6432V6.90546V2.17497L13.5411 1.62609C13.2161 0.968876 12.7972 0.564437 12.1255 0.246663L11.6417 0.0155554L7.05561 0.00111103C4.43398 -0.00611115 2.34678 0.0227776 2.1879 0.0588875ZM11.49 1.22165C11.8872 1.3372 12.4866 1.93664 12.6022 2.33386C12.725 2.75996 12.725 11.0654 12.6022 11.4915C12.4866 11.8887 11.8872 12.4882 11.49 12.6037C11.2733 12.6687 10.06 12.6904 6.91117 12.6904C3.76232 12.6904 2.549 12.6687 2.33234 12.6037C1.93512 12.4882 1.33569 11.8887 1.22013 11.4915C1.09736 11.0654 1.09736 2.75996 1.22013 2.33386C1.32846 1.96553 1.93512 1.34443 2.28901 1.22887C2.66456 1.11332 11.0928 1.1061 11.49 1.22165Z"></path><path d="M18.3655 0.0588875C17.9177 0.16722 17.2605 0.549993 16.9428 0.896654C16.7839 1.06999 16.5455 1.43109 16.4228 1.69831L16.1917 2.18219V6.91268V11.6432L16.4228 12.1271C16.7405 12.7987 17.145 13.2176 17.8022 13.5426L18.3511 13.8098H23.0888H27.8265L28.3754 13.5426C29.0326 13.2176 29.437 12.7987 29.7548 12.1271L29.9859 11.6432V6.90546V2.17497L29.7187 1.62609C29.3937 0.968876 28.9748 0.564437 28.3032 0.246663L27.8193 0.0155554L23.2332 0.00111103C20.6116 -0.00611115 18.5244 0.0227776 18.3655 0.0588875ZM27.6676 1.22165C28.0648 1.3372 28.6643 1.93664 28.7798 2.33386C28.9026 2.75996 28.9026 11.0654 28.7798 11.4915C28.6643 11.8887 28.0648 12.4882 27.6676 12.6037C27.2415 12.7265 18.9361 12.7265 18.51 12.6037C18.1127 12.4882 17.5133 11.8887 17.3977 11.4915C17.275 11.0654 17.275 2.75996 17.3977 2.33386C17.5061 1.96553 18.1127 1.34443 18.4666 1.22887C18.8422 1.11332 27.2704 1.1061 27.6676 1.22165Z"></path><path d="M2.1879 16.2365C1.74013 16.3448 1.08291 16.7276 0.765139 17.0743C0.606252 17.2476 0.367922 17.6087 0.245146 17.8759L0.0140381 18.3598V23.0903V27.8208L0.245146 28.3047C0.56292 28.9763 0.967359 29.3952 1.62457 29.7202L2.17345 29.9874H6.91117H11.6489L12.1978 29.7202C12.855 29.3952 13.2594 28.9763 13.5772 28.3047L13.8083 27.8208V23.0831V18.3526L13.5411 17.8037C13.2161 17.1465 12.7972 16.742 12.1255 16.4243L11.6417 16.1932L7.05561 16.1787C4.43398 16.1715 2.34678 16.2004 2.1879 16.2365ZM11.49 17.3993C11.8872 17.5148 12.4866 18.1142 12.6022 18.5115C12.725 18.9376 12.725 27.243 12.6022 27.6691C12.4866 28.0663 11.8872 28.6658 11.49 28.7813C11.0639 28.9041 2.75845 28.9041 2.33234 28.7813C1.93512 28.6658 1.33569 28.0663 1.22013 27.6691C1.09736 27.243 1.09736 18.9376 1.22013 18.5115C1.32846 18.1431 1.93512 17.522 2.28901 17.4065C2.66456 17.2909 11.0928 17.2837 11.49 17.3993Z"></path><path d="M22.0559 16.2365C21.1315 16.3737 19.9543 16.8359 19.1237 17.3992C18.5315 17.7965 17.5204 18.8942 17.1593 19.5153C16.4154 20.8081 16.1916 21.6458 16.1988 23.0903C16.1988 24.2458 16.2927 24.7441 16.6682 25.683C17.311 27.3008 18.7482 28.7741 20.3443 29.453C21.2976 29.8574 21.9259 29.9802 23.0887 29.9802C24.5331 29.9874 25.3709 29.7563 26.6636 29.0196C27.4509 28.5646 28.5631 27.4524 29.0181 26.6652C29.7547 25.3869 29.9786 24.5419 29.9786 23.0903C29.9786 21.6386 29.7475 20.772 29.0181 19.5153C28.5703 18.7426 27.5159 17.6809 26.707 17.1826C25.342 16.3448 23.652 16.0054 22.0559 16.2365ZM24.4609 17.4787C25.1831 17.6809 25.6742 17.8903 26.2159 18.2514C29.2997 20.2592 29.7547 24.5708 27.162 27.1636C24.5692 29.7563 20.2576 29.3013 18.2499 26.2175C16.8632 24.1086 17.0438 21.3064 18.6832 19.3709C19.5498 18.3526 20.6548 17.7026 22.0054 17.4137C22.5831 17.2909 23.8976 17.327 24.4609 17.4787Z"></path></svg>