<svg viewBox="0 0 30 30" xmlns="http://www.w3.org/2000/svg"><path d="M14.5312 1.17188V1.875H15H15.4688V1.17188V0.46875H15H14.5312V1.17188Z"></path><path d="M10.6348 2.22656L10.2891 2.57812L10.8105 3.10547L11.3379 3.63281L11.7012 3.26953L12.0703 2.90039L11.5605 2.39062C11.2793 2.10352 11.0332 1.875 11.0156 1.875C10.998 1.875 10.8281 2.0332 10.6348 2.22656Z"></path><path d="M18.4395 2.39062L17.9297 2.90039L18.2988 3.26953L18.6621 3.63281L19.1894 3.10547L19.7109 2.57812L19.3652 2.22656C19.1719 2.0332 19.0019 1.875 18.9844 1.875C18.9668 1.875 18.7207 2.10352 18.4395 2.39062Z"></path><path d="M14.5489 2.34957C13.4707 2.44918 12.4102 3.02926 11.7129 3.91403C11.3028 4.42379 11.0508 4.93356 10.8868 5.57223C10.711 6.27535 10.752 7.39449 10.9805 8.0566C11.1856 8.65426 11.5782 9.28707 12.0762 9.81442C12.2872 10.0371 12.4981 10.289 12.5391 10.3711C12.586 10.4589 12.6329 10.8574 12.6504 11.3964C12.6856 12.1113 12.7149 12.3281 12.8145 12.5449C12.9727 12.8964 13.3184 13.2422 13.6875 13.4238C13.9512 13.5527 14.0567 13.5644 14.9122 13.582C15.7559 13.5996 15.8907 13.5879 16.1895 13.4765C16.5879 13.3242 16.9747 12.9726 17.168 12.5683C17.2911 12.3105 17.3145 12.164 17.3497 11.3964C17.3907 10.4004 17.42 10.3125 17.8418 9.90231C18.4219 9.34567 18.9141 8.50778 19.1075 7.74606C19.2598 7.14254 19.2598 6.15817 19.1075 5.55465C18.8848 4.69918 18.3282 3.8027 17.6719 3.27535C16.7754 2.55465 15.7442 2.2441 14.5489 2.34957ZM16.084 3.52145C17.3848 4.00778 18.2227 5.23238 18.2227 6.63864C18.2227 7.59957 17.9356 8.3027 17.2559 9.01754C17.0274 9.26364 16.7813 9.55075 16.7051 9.65035L16.5762 9.84371H16.0196H15.4688V9.2695C15.4688 8.8945 15.4454 8.66012 15.3985 8.60153C15.3575 8.55465 14.9473 8.23239 14.4903 7.88668C13.629 7.24801 13.5411 7.13668 13.6172 6.82614C13.6758 6.5859 13.8106 6.58004 14.0508 6.81442C14.3672 7.11325 14.625 7.22457 15 7.22457C15.3633 7.22457 15.5977 7.12496 15.9434 6.81442C16.1954 6.5859 16.3243 6.59176 16.3829 6.82614C16.4473 7.08395 16.3594 7.25387 15.9961 7.52926C15.8028 7.67575 15.6446 7.81637 15.6446 7.83395C15.6446 7.8691 16.1836 8.61325 16.2129 8.61325C16.2247 8.61325 16.4239 8.46676 16.6583 8.29098C17.2442 7.85153 17.3438 7.66403 17.3438 6.9609C17.3438 6.33395 17.2618 6.11715 16.9102 5.8359C16.7286 5.68356 16.629 5.65426 16.295 5.63668C15.8321 5.60739 15.6563 5.6777 15.2579 6.04684L15 6.28707L14.7422 6.04684C14.3438 5.6777 14.168 5.60739 13.7051 5.63668C13.3711 5.65426 13.2715 5.68356 13.0899 5.8359C12.7383 6.11715 12.6563 6.33395 12.6563 6.96676C12.6563 7.73434 12.7266 7.83981 13.7344 8.58395L14.5254 9.16989L14.5313 9.50387V9.84371H13.9512C13.418 9.84371 13.3653 9.832 13.3301 9.72653C13.3067 9.66207 13.0723 9.3691 12.7969 9.07614C12.0528 8.27926 11.7657 7.59957 11.7715 6.62106C11.7832 4.35934 14.0215 2.74801 16.084 3.52145ZM16.4063 11.0156V11.25H15H13.5938V11.0156V10.7812H15H16.4063V11.0156ZM16.1368 12.3105C15.8965 12.5742 15.709 12.6269 15 12.6269C14.2911 12.6269 14.1036 12.5742 13.8633 12.3105L13.752 12.1875H15H16.2481L16.1368 12.3105Z"></path><path d="M8.90625 6.5625V7.03125H9.60938H10.3125V6.5625V6.09375H9.60938H8.90625V6.5625Z"></path><path d="M19.6875 6.5625V7.03125H20.3906H21.0938V6.5625V6.09375H20.3906H19.6875V6.5625Z"></path><path d="M7.72266 11.9531C5.70703 12.334 4.00195 12.6738 3.94336 12.709C3.88477 12.7383 3.1875 13.418 2.39062 14.2207C0.955078 15.6621 0.9375 15.6797 0.9375 15.9258C0.9375 16.2598 1.06641 16.3711 1.58789 16.4883C1.82812 16.541 2.29688 16.6406 2.63672 16.7168L3.25195 16.8457L3.28125 21.2344C3.31055 25.3477 3.31641 25.6172 3.41602 25.6934C3.54492 25.7871 14.7539 28.5938 15 28.5938C15.2051 28.5938 18.7559 27.7207 18.832 27.6563C18.8906 27.5977 18.6914 26.7188 18.6211 26.7188C18.5918 26.7188 17.8828 26.8887 17.0391 27.0996C16.2012 27.3105 15.5039 27.4746 15.4922 27.4629C15.4805 27.4512 15.4746 24.9492 15.4805 21.9023L15.498 16.3594L16.3477 17.3555C17.5957 18.8145 17.5254 18.75 17.7891 18.75C17.918 18.75 19.7578 18.3691 21.8848 17.9121L25.752 17.0684L25.7695 18.1465L25.7812 19.2188H26.25H26.7188L26.7305 18.0352L26.748 16.8574L27.334 16.7285C27.6562 16.6523 28.125 16.5527 28.377 16.4941C28.9336 16.377 29.0625 16.2656 29.0625 15.9258C29.0625 15.6797 29.0449 15.6621 27.6152 14.2207C26.8125 13.418 26.0859 12.7266 25.9863 12.6856C25.752 12.5918 18.4102 11.2207 18.3633 11.2676C18.2988 11.3262 18.1641 12.1524 18.2109 12.1934C18.2344 12.2109 19.3008 12.4219 20.584 12.6621C21.9609 12.9199 22.8574 13.1074 22.7812 13.1309C22.7051 13.1484 20.9297 13.4649 18.8262 13.8281L15.0059 14.4902L11.209 13.834C9.12305 13.4707 7.3418 13.1543 7.25391 13.1367C7.14258 13.1074 7.79883 12.9668 9.42188 12.6621C10.6992 12.4277 11.7656 12.2109 11.7949 12.1875C11.8301 12.1524 11.8066 11.959 11.6836 11.3789C11.666 11.291 11.6191 11.25 11.5254 11.2559C11.4551 11.2559 9.74414 11.5723 7.72266 11.9531ZM9.3457 14.5254C11.8945 14.9649 13.9746 15.3516 13.9688 15.375C13.957 15.4863 12.0352 17.6895 11.9473 17.6895C11.8594 17.6953 2.79492 15.7383 2.55469 15.668C2.4668 15.6387 2.63086 15.4453 3.42773 14.6484C4.28906 13.7813 4.43555 13.6641 4.56445 13.6875C4.64648 13.7051 6.80273 14.0801 9.3457 14.5254ZM26.5664 14.6426C27.5508 15.627 27.5566 15.6387 27.3867 15.6797C27.293 15.7031 25.1426 16.1719 22.6113 16.7285L18.0059 17.7305L17.0215 16.5762C16.4824 15.9434 16.0371 15.4043 16.0312 15.375C16.0254 15.3516 18.1641 14.9531 20.7715 14.4961C23.3848 14.0391 25.5293 13.6641 25.5469 13.6582C25.5645 13.6582 26.0215 14.0977 26.5664 14.6426ZM14.5078 27.4629C14.4961 27.4746 12.1816 26.9063 9.36914 26.2031L4.24805 24.9258L4.23047 20.9824C4.21875 17.25 4.22461 17.0449 4.31836 17.0742C4.71094 17.1973 12.0352 18.75 12.2109 18.75C12.4688 18.75 12.4102 18.8086 13.6523 17.3555L14.502 16.3594L14.5195 21.9023C14.5254 24.9492 14.5195 27.4512 14.5078 27.4629Z"></path><path d="M22.6816 19.3711C22.5879 19.4941 22.5586 19.6113 22.5586 19.8867V20.25L22.2539 20.3789L21.9492 20.5078L21.6797 20.2441C21.457 20.0215 21.375 19.9805 21.1816 19.9805C20.9648 19.9805 20.9062 20.0215 20.2324 20.7012C19.5527 21.375 19.5117 21.4336 19.5117 21.6504C19.5117 21.8438 19.5527 21.9258 19.7754 22.1484L20.0391 22.418L19.9102 22.7227L19.7812 23.0273H19.418C19.1426 23.0273 19.0254 23.0566 18.9023 23.1504L18.75 23.2676V24.375V25.4824L18.9023 25.5996C19.0254 25.6934 19.1426 25.7227 19.418 25.7227H19.7812L19.9102 26.0273L20.0391 26.332L19.7754 26.6016C19.5527 26.8242 19.5117 26.9062 19.5117 27.0996C19.5117 27.3164 19.5527 27.375 20.2324 28.0488C20.9062 28.7285 20.9648 28.7695 21.1816 28.7695C21.375 28.7695 21.457 28.7285 21.6797 28.5059L21.9492 28.2422L22.2539 28.3711L22.5586 28.5V28.8633C22.5586 29.1387 22.5879 29.2559 22.6816 29.3789L22.7988 29.5312H23.9062H25.0137L25.1309 29.3789C25.2246 29.2559 25.2539 29.1387 25.2539 28.8633V28.5L25.5586 28.3711L25.8633 28.2422L26.1328 28.5059C26.3555 28.7285 26.4375 28.7695 26.6309 28.7695C26.8477 28.7695 26.9062 28.7285 27.5801 28.0488C28.2598 27.375 28.3008 27.3164 28.3008 27.0996C28.3008 26.9062 28.2598 26.8242 28.0371 26.6016L27.7734 26.332L27.9023 26.0273L28.0312 25.7227H28.3945C28.6699 25.7227 28.7871 25.6934 28.9102 25.5996L29.0625 25.4824V24.375V23.2676L28.9102 23.1504C28.7871 23.0566 28.6699 23.0273 28.3945 23.0273H28.0312L27.9023 22.7227L27.7734 22.418L28.0371 22.1484C28.2598 21.9258 28.3008 21.8438 28.3008 21.6504C28.3008 21.4336 28.2598 21.375 27.5801 20.7012C26.9062 20.0215 26.8477 19.9805 26.6309 19.9805C26.4375 19.9805 26.3555 20.0215 26.1328 20.2441L25.8633 20.5078L25.5586 20.3789L25.2539 20.25V19.8867C25.2539 19.6113 25.2246 19.4941 25.1309 19.3711L25.0137 19.2188H23.9062H22.7988L22.6816 19.3711ZM24.2578 20.3438C24.2578 20.6191 24.4863 20.9883 24.7266 21.1055C25.6348 21.5508 26.0156 21.6094 26.3965 21.3516L26.6191 21.1992L26.8477 21.4336L27.082 21.6621L26.9297 21.8848C26.6719 22.2656 26.7246 22.6406 27.1758 23.5547C27.2871 23.7832 27.6914 24.0234 27.9609 24.0234C28.125 24.0234 28.125 24.0293 28.125 24.375V24.7266H27.9375C27.6621 24.7266 27.293 24.9551 27.1758 25.1953C26.7305 26.1035 26.6719 26.4844 26.9297 26.8652L27.082 27.0879L26.8477 27.3164L26.6191 27.5508L26.3965 27.3984C26.0156 27.1406 25.6348 27.1992 24.7266 27.6445C24.4863 27.7617 24.2578 28.1309 24.2578 28.4004V28.5938H23.9062H23.5547V28.4004C23.5547 28.1309 23.3262 27.7617 23.0859 27.6445C22.1777 27.1992 21.7969 27.1406 21.416 27.3984L21.1934 27.5508L20.9648 27.3164L20.7305 27.0879L20.8828 26.8652C21.1406 26.4844 21.082 26.1035 20.6367 25.1953C20.5195 24.9551 20.1504 24.7266 19.8809 24.7266H19.6875V24.375C19.6875 24.0293 19.6875 24.0234 19.8516 24.0234C20.1211 24.0234 20.5254 23.7832 20.6367 23.5547C21.0879 22.6406 21.1406 22.2656 20.8828 21.8848L20.7305 21.6621L20.9648 21.4336L21.1934 21.1992L21.416 21.3516C21.7969 21.6094 22.1777 21.5508 23.0859 21.1055C23.3262 20.9883 23.5547 20.6191 23.5547 20.3438V20.1562H23.9062H24.2578V20.3438Z"></path><path d="M22.9922 21.9375C21.9492 22.3242 21.3281 23.2324 21.3281 24.375C21.3281 25.8633 22.4062 26.9531 23.8711 26.9531C25.0371 26.9531 25.9629 26.3262 26.3437 25.2773C26.5254 24.7852 26.5371 24.0234 26.373 23.543C26.1035 22.752 25.5293 22.1777 24.7383 21.9082C24.2695 21.7441 23.4668 21.7617 22.9922 21.9375ZM24.4863 22.8926C25.5059 23.2559 25.8223 24.6035 25.084 25.4414C24.498 26.1152 23.3672 26.1328 22.752 25.4824C22.0312 24.7207 22.2422 23.4316 23.1621 22.957C23.6016 22.7344 23.9883 22.7168 24.4863 22.8926Z"></path></svg>