<svg viewBox="0 0 30 30" xmlns="http://www.w3.org/2000/svg"><path d="M6.49215 0.533203C6.3398 0.621094 6.28121 0.9375 6.24019 1.97461L6.19918 2.92969H4.89254H3.58004L3.46285 3.08203C3.1816 3.43945 3.37496 5.49023 3.82027 6.82031C4.44137 8.69531 5.77144 10.3477 7.48238 11.3672C7.8691 11.5957 7.92769 11.6543 8.17379 12.0938C8.63668 12.9141 9.20504 13.6582 9.9023 14.3555C10.8339 15.2871 11.789 15.9199 12.832 16.2949C13.0429 16.3652 13.2304 16.459 13.2539 16.4883C13.2773 16.5234 13.3007 17.666 13.3007 19.0254V21.498L11.9472 21.5156C10.6054 21.5332 10.5937 21.5332 10.4824 21.6738C10.3828 21.7969 10.3711 21.9141 10.3711 23.0039V24.1934L9.26363 24.2109C8.2734 24.2285 8.14449 24.2402 8.03316 24.3398C7.91012 24.4512 7.91012 24.4922 7.91012 26.5547V28.6523H5.30855C3.61519 28.6523 2.6484 28.6758 2.53121 28.7168C2.23824 28.8164 2.16793 29.168 2.39058 29.4258C2.47262 29.5254 3.14644 29.5312 15 29.5312C27.4746 29.5312 27.5214 29.5312 27.6269 29.4141C27.7734 29.25 27.7617 28.9688 27.6035 28.8105C27.4804 28.6816 27.4687 28.6816 24.7558 28.6641L22.0312 28.6465V26.5781C22.0312 24.5742 22.0253 24.5039 21.9082 24.3516L21.791 24.1992H20.6836H19.5761L19.5586 22.9746C19.541 21.8672 19.5293 21.7383 19.4296 21.627C19.3242 21.5098 19.2656 21.5039 17.9765 21.5039H16.6406V18.9668V16.4238L17.2207 16.207C18.3046 15.7969 19.2011 15.1875 20.0976 14.2559C20.8476 13.4824 21.2461 12.9375 21.8789 11.8242C21.9902 11.6309 22.1191 11.502 22.3535 11.3672C23.7246 10.582 25.0019 9.1875 25.6992 7.71094C26.2617 6.50977 26.4785 5.5957 26.5253 4.18359C26.5722 2.82422 26.6953 2.92969 25.0312 2.92969H23.748L23.707 1.89258C23.6777 1.05469 23.6484 0.820312 23.5664 0.673828L23.4609 0.498047L15.0234 0.486328C9.45699 0.474609 6.5566 0.492188 6.49215 0.533203ZM22.875 1.85742C22.9394 2.67188 22.9218 4.94531 22.8515 5.68359C22.7109 7.07227 22.3769 8.61914 21.9726 9.72656C21.7148 10.4414 21.0996 11.666 20.6953 12.2754C19.6464 13.8516 18.2226 15 16.6992 15.498C16.3418 15.6094 16.0371 15.8145 15.9257 16.0137C15.8671 16.1074 15.8437 16.8105 15.8203 18.8086L15.791 21.4746L15.0175 21.4922L14.2382 21.5098V18.9258C14.2382 16.5 14.2324 16.3301 14.1269 16.125C13.9511 15.791 13.7695 15.6562 13.1777 15.4336C9.9609 14.2383 7.74019 10.7051 7.17769 5.88281C7.07808 5.03906 7.04879 2.53125 7.12496 1.74609L7.16597 1.34766H15H22.8339L22.875 1.85742ZM6.17574 4.31836C6.25777 5.57227 6.3398 6.39258 6.45113 7.02539C6.5859 7.81055 6.9023 9.05273 7.11324 9.63867C7.19527 9.86133 7.25387 10.0488 7.24801 10.0605C7.20699 10.0957 6.38668 9.33984 6.11129 9.01758C4.99215 7.69922 4.37105 6.16406 4.24801 4.37695L4.20699 3.80859H5.17379H6.14058L6.17574 4.31836ZM25.7519 4.37695C25.6054 6.46875 24.8027 8.21484 23.3554 9.5918C23.039 9.89062 22.7695 10.1309 22.7519 10.1191C22.7402 10.1016 22.7812 9.96094 22.8457 9.80273C23.291 8.66602 23.789 6.04688 23.789 4.80469C23.789 4.59375 23.8066 4.2832 23.8242 4.11328L23.8652 3.80859H24.832H25.7929L25.7519 4.37695ZM18.6328 23.291V24.1992H14.9707H11.3086V23.291V22.3828H14.9707H18.6328V23.291ZM21.1523 26.8652V28.6523H15H8.84762V26.8652V25.0781H15H21.1523V26.8652Z"></path><path d="M14.8066 3.52734C14.7539 3.56836 14.4551 4.13086 14.1445 4.77539C13.8281 5.41992 13.5527 5.96484 13.5234 5.98242C13.4941 6 12.9023 6.09961 12.2051 6.20508C11.5137 6.31055 10.8809 6.42188 10.8047 6.45703C10.6465 6.5332 10.5469 6.7793 10.6055 6.94336C10.6465 7.04883 11.2207 7.62891 12.2402 8.5957L12.6211 8.95312L12.4043 10.2305C12.2813 10.9395 12.1875 11.584 12.1875 11.6719C12.1875 11.8887 12.3809 12.0703 12.6035 12.0703C12.7266 12.0703 13.1895 11.8594 13.9512 11.4551C14.5957 11.1152 15.1465 10.8398 15.1758 10.8398C15.2109 10.8398 15.7207 11.1152 16.3125 11.4551C17.4492 12.1055 17.6543 12.1699 17.8711 11.9531C17.9356 11.8887 17.9883 11.7656 17.9883 11.6719C17.9883 11.584 17.8945 10.9395 17.7715 10.2305L17.5547 8.95312L17.9063 8.625C18.832 7.75195 19.4766 7.10742 19.5469 6.97852C19.6406 6.79688 19.5527 6.53906 19.3652 6.45703C19.2891 6.42188 18.6563 6.30469 17.959 6.19922C17.2676 6.09961 16.6758 6 16.6523 5.98242C16.6231 5.96484 16.3477 5.41992 16.0313 4.77539C15.7207 4.13086 15.4219 3.56836 15.3691 3.52734C15.3164 3.49219 15.1875 3.45703 15.0879 3.45703C14.9883 3.45703 14.8594 3.49219 14.8066 3.52734ZM15.5273 5.85352C15.7793 6.36914 16.0195 6.80273 16.0488 6.82031C16.0781 6.84375 16.4824 6.9082 16.9453 6.97266C17.4082 7.03711 17.8711 7.10156 17.9824 7.11914L18.1816 7.1543L17.4375 7.9043C16.582 8.77148 16.6231 8.63672 16.8457 9.83789C16.9277 10.2715 16.9922 10.6699 16.9922 10.7227C16.9922 10.8047 16.8047 10.7227 16.1309 10.3652C15.6504 10.1133 15.1934 9.90234 15.0996 9.90234C15.0117 9.90234 14.5137 10.1133 13.9981 10.377C13.0664 10.8398 13.0547 10.8457 13.0898 10.6816C13.2656 9.80859 13.418 8.80664 13.3945 8.70117C13.377 8.63086 13.0313 8.26172 12.627 7.88086C12.2227 7.5 11.9004 7.17773 11.918 7.16602C11.9297 7.14844 12.3809 7.07812 12.9141 7.00195C13.459 6.92578 13.9453 6.83203 14.0215 6.7793C14.0918 6.73242 14.3438 6.30469 14.5898 5.80664C14.8301 5.32031 15.0352 4.92188 15.041 4.92188C15.0527 4.92188 15.2695 5.34375 15.5273 5.85352Z"></path></svg>